<svg width="100" height="100" viewBox="0 0 100 100" fill="none" xmlns="http://www.w3.org/2000/svg">
<path fill-rule="evenodd" clip-rule="evenodd" d="M63.9349 33.5971C63.9349 31.0503 61.8708 28.9862 59.3251 28.9862C51.0709 28.9862 33.864 28.9862 25.6098 28.9862C23.0641 28.9862 21 31.0503 21 33.5971V76.016C21 78.5616 23.0641 80.6257 25.6098 80.6257C33.864 80.6257 51.0709 80.6257 59.3251 80.6257C61.8708 80.6257 63.9349 78.5616 63.9349 76.016C63.9349 66.2136 63.9349 43.3994 63.9349 33.5971Z" fill="#40435C"/>
<path fill-rule="evenodd" clip-rule="evenodd" d="M29.2223 28.9862C27.9393 32.2952 27.1313 35.9942 26.8683 39.6132C26.8633 39.6852 26.8603 39.7582 26.8603 39.8302V67.1162C26.8603 71.2712 30.2293 74.6392 34.3843 74.6392H63.9333V33.5972C63.9333 31.0502 61.8693 28.9862 59.3233 28.9862H29.2223Z" fill="#2E303F"/>
<path fill-rule="evenodd" clip-rule="evenodd" d="M72.7969 24.5242C72.7969 22.0263 70.7717 20 68.2727 20C59.6415 20 41.6717 20 41.6717 20C34.7531 21.2856 30.5148 30.8477 29.862 39.8304V67.1154C29.862 69.6144 31.8872 71.6395 34.385 71.6395C42.6337 71.6395 60.0252 71.6395 68.2727 71.6395C69.4727 71.6395 70.6238 71.1624 71.4712 70.315C72.3198 69.4664 72.7969 68.3154 72.7969 67.1154V24.5242Z" fill="#40435C"/>
<path fill-rule="evenodd" clip-rule="evenodd" d="M40.246 30.5308C41.0534 30.206 41.6851 29.5532 41.982 28.7347C42.2789 27.9161 42.2133 27.0109 41.8018 26.2435C40.5518 23.9336 39.5431 21.002 41.6717 20C34.7531 21.2856 30.5148 30.8477 29.862 39.8304C31.2655 34.9537 36.6071 32.011 40.246 30.5308Z" fill="#606492"/>
<path d="M66.5423 75.1916C73.8993 75.1916 79.8633 69.2276 79.8633 61.8706C79.8633 54.5136 73.8993 48.5496 66.5423 48.5496C59.1853 48.5496 53.2213 54.5136 53.2213 61.8706C53.2213 69.2276 59.1853 75.1916 66.5423 75.1916Z" fill="#2E303F"/>
<path fill-rule="evenodd" clip-rule="evenodd" d="M68.8216 55.3572C68.8216 54.6841 68.2763 54.1379 67.6035 54.1379C66.9464 54.1379 66.1382 54.1379 65.4821 54.1379C64.8093 54.1379 64.263 54.6841 64.263 55.3572C64.263 58.2471 64.263 65.4911 64.263 68.3821C64.263 69.0552 64.8093 69.6003 65.4821 69.6003C66.1382 69.6003 66.9464 69.6003 67.6035 69.6003C68.2763 69.6003 68.8216 69.0552 68.8216 68.3821C68.8216 65.4911 68.8216 58.2471 68.8216 55.3572Z" fill="#7C68DD"/>
<path fill-rule="evenodd" clip-rule="evenodd" d="M73.0546 64.1493C73.7277 64.1493 74.2739 63.604 74.2739 62.9312C74.2739 62.2741 74.2739 61.4659 74.2739 60.8098C74.2739 60.137 73.7277 59.5907 73.0546 59.5907C70.1647 59.5907 62.9207 59.5907 60.0297 59.5907C59.3566 59.5907 58.8115 60.137 58.8115 60.8098C58.8115 61.4659 58.8115 62.2741 58.8115 62.9312C58.8115 63.604 59.3566 64.1493 60.0297 64.1493C62.9207 64.1493 70.1647 64.1493 73.0546 64.1493Z" fill="#7C68DD"/>
<path fill-rule="evenodd" clip-rule="evenodd" d="M48.399 34.4136C48.4903 34.1333 48.7519 33.9427 49.0473 33.9427C49.3426 33.9427 49.6051 34.1333 49.6965 34.4136C49.6965 34.4136 49.9909 35.2082 50.3235 36.1031C50.9062 37.6729 52.1443 38.911 53.7141 39.4937C54.6089 39.8262 55.4027 40.1207 55.4027 40.1207C55.6838 40.212 55.8736 40.4746 55.8736 40.7699C55.8736 41.0652 55.6838 41.3269 55.4027 41.4182C55.4027 41.4182 54.6089 41.7127 53.7141 42.0452C52.1443 42.6279 50.9062 43.866 50.3235 45.4358C49.9909 46.3307 49.6965 47.1253 49.6965 47.1253C49.6051 47.4056 49.3426 47.5963 49.0473 47.5963C48.7519 47.5963 48.4903 47.4056 48.399 47.1253C48.399 47.1253 48.1045 46.3307 47.7719 45.4358C47.1892 43.866 45.9511 42.6279 44.3814 42.0452C43.4865 41.7127 42.6918 41.4182 42.6918 41.4182C42.4116 41.3269 42.2209 41.0652 42.2209 40.7699C42.2209 40.4746 42.4116 40.212 42.6918 40.1207C42.6918 40.1207 43.4865 39.8262 44.3814 39.4937C45.9511 38.911 47.1892 37.6729 47.7719 36.1031C48.1045 35.2082 48.399 34.4136 48.399 34.4136Z" fill="#7C68DD"/>
<path fill-rule="evenodd" clip-rule="evenodd" d="M59.4486 27.9105C59.5015 27.7484 59.6528 27.6381 59.8237 27.6381C59.9945 27.6381 60.1464 27.7484 60.1992 27.9105C60.1992 27.9105 60.3696 28.3702 60.562 28.8879C60.8991 29.796 61.6153 30.5123 62.5234 30.8494C63.0411 31.0418 63.5003 31.2121 63.5003 31.2121C63.663 31.265 63.7728 31.4168 63.7728 31.5877C63.7728 31.7585 63.663 31.9099 63.5003 31.9627C63.5003 31.9627 63.0411 32.1331 62.5234 32.3255C61.6153 32.6626 60.8991 33.3788 60.562 34.2869C60.3696 34.8046 60.1992 35.2643 60.1992 35.2643C60.1464 35.4264 59.9945 35.5368 59.8237 35.5368C59.6528 35.5368 59.5015 35.4264 59.4486 35.2643C59.4486 35.2643 59.2783 34.8046 59.0859 34.2869C58.7488 33.3788 58.0326 32.6626 57.1244 32.3255C56.6068 32.1331 56.147 31.9627 56.147 31.9627C55.9849 31.9099 55.8746 31.7585 55.8746 31.5877C55.8746 31.4168 55.9849 31.265 56.147 31.2121C56.147 31.2121 56.6068 31.0418 57.1244 30.8494C58.0326 30.5123 58.7488 29.796 59.0859 28.8879C59.2783 28.3702 59.4486 27.9105 59.4486 27.9105Z" fill="#7C68DD"/>
</svg>
