<svg width="100" height="100" viewBox="0 0 100 100" fill="none" xmlns="http://www.w3.org/2000/svg">
<path fill-rule="evenodd" clip-rule="evenodd" d="M49.5182 55.3703L79.3834 42.1123C79.3834 42.1123 60.0834 33.5432 52.5139 30.1832C50.6062 29.3362 48.4303 29.3362 46.5234 30.1832C38.954 33.5432 19.6539 42.1123 19.6539 42.1123L49.5182 55.3703Z" fill="#2E303F"/>
<path fill-rule="evenodd" clip-rule="evenodd" d="M49.5307 29.5482L49.5182 55.3703L79.3835 42.1123C79.3835 42.1123 60.0834 33.5432 52.5139 30.1832C51.5641 29.7612 50.5474 29.5502 49.5307 29.5482Z" fill="#40435C"/>
<path fill-rule="evenodd" clip-rule="evenodd" d="M19.6539 70.1266C19.6539 71.5086 20.4675 72.7596 21.7292 73.3196C26.8482 75.5926 40.1061 81.4786 46.2739 84.2166C48.3394 85.1336 50.6971 85.1336 52.7634 84.2166C58.9313 81.4786 72.1882 75.5926 77.3073 73.3196C78.5699 72.7596 79.3834 71.5086 79.3834 70.1266C79.3834 63.0886 79.3834 42.1125 79.3834 42.1125L49.5182 55.3705L19.6539 42.1125V70.1266Z" fill="#40435C"/>
<path fill-rule="evenodd" clip-rule="evenodd" d="M49.5298 84.9046C50.6321 84.9026 51.7334 84.6736 52.7634 84.2166C58.9313 81.4786 72.1883 75.5926 77.3073 73.3196C78.5699 72.7596 79.3835 71.5086 79.3835 70.1266C79.3835 63.0886 79.3835 42.1125 79.3835 42.1125L49.5182 55.3705L49.5298 84.9046Z" fill="#2E303F"/>
<path fill-rule="evenodd" clip-rule="evenodd" d="M49.5195 55.3703L19.6543 42.1123C19.6543 42.1123 15.1073 49.4033 12.4608 53.6463C11.9948 54.3933 11.8754 55.3063 12.1338 56.1483C12.3922 56.9893 13.0026 57.6783 13.8072 58.0353C19.2684 60.4603 30.3842 65.3953 36.3952 68.0633C38.7342 69.1023 41.4805 68.2593 42.8348 66.0883C45.5151 61.7913 49.5195 55.3703 49.5195 55.3703Z" fill="#606492"/>
<path fill-rule="evenodd" clip-rule="evenodd" d="M49.5182 55.3703L79.3835 42.1123C79.3835 42.1123 83.9305 49.4033 86.5769 53.6463C87.0429 54.3933 87.1623 55.3063 86.9039 56.1483C86.6455 56.9893 86.0351 57.6783 85.2305 58.0353C79.7693 60.4603 68.6535 65.3953 62.6425 68.0633C60.3035 69.1023 57.5573 68.2593 56.2029 66.0883C53.5226 61.7913 49.5182 55.3703 49.5182 55.3703Z" fill="#606492"/>
<path fill-rule="evenodd" clip-rule="evenodd" d="M55.3059 38.7449C54.9619 38.4689 54.5799 38.2319 54.1679 38.0329C52.7489 37.3469 50.9749 37.1389 49.4249 37.3379C48.0939 37.5079 46.9319 37.9879 46.2279 38.6559C45.6139 39.2379 45.2979 39.9589 45.3589 40.7819C45.4749 42.3819 46.6369 43.2999 48.4259 43.4529C50.0029 43.5879 52.1369 43.0749 54.092 42.0219C54.37 41.8719 54.644 41.7109 54.913 41.5399C54.978 41.7399 55.021 41.9549 55.038 42.1849C55.094 42.9479 54.7869 43.6149 54.2959 44.2069C53.7059 44.9169 52.8609 45.5189 51.9359 46.0349C48.9499 47.7009 45.1189 48.4509 45.1189 48.4509C44.5769 48.5569 44.2239 49.0829 44.3299 49.6249C44.4369 50.1659 44.9629 50.5189 45.5039 50.4129C45.5039 50.4129 49.6659 49.5919 52.9109 47.7809C55.3559 46.4169 57.21 44.4579 57.032 42.0389C56.984 41.3839 56.82 40.7999 56.5629 40.2849C57.462 39.4689 58.211 38.5189 58.696 37.4699C59.946 34.7649 60.563 30.1539 57.837 26.1509C55.237 22.3339 49.4879 18.9709 37.9009 18.7149C37.3489 18.7029 36.8909 19.1409 36.8789 19.6919C36.8669 20.2439 37.3049 20.7019 37.8569 20.7139C48.4579 20.9489 53.8049 23.7839 56.184 27.2769C58.436 30.5839 57.914 34.3959 56.881 36.6299C56.517 37.4159 55.9669 38.1259 55.3059 38.7449ZM53.6189 40.0059C53.5149 39.9439 53.4079 39.8869 53.2979 39.8339C52.2159 39.3109 50.8609 39.1699 49.6789 39.3209C48.9449 39.4149 48.2759 39.6179 47.8059 39.9449C47.5399 40.1289 47.3319 40.3429 47.3529 40.6369C47.3839 41.0509 47.6859 41.2659 48.0879 41.3749C48.5419 41.4979 49.0999 41.5029 49.7089 41.4239C50.9289 41.2659 52.3419 40.7709 53.6189 40.0059Z" fill="#8572DF"/>
<path fill-rule="evenodd" clip-rule="evenodd" d="M34.5902 18.2163C34.8673 17.7227 34.8395 17.1144 34.5197 16.6479C34.1999 16.1807 33.6434 15.9351 33.0835 16.0149C33.0165 16.0242 32.9495 16.0335 32.8826 16.0428C30.9787 16.3124 29.4998 17.8374 29.2873 19.7482L33.7254 19.7614C33.7254 19.7614 34.1226 19.0508 34.5902 18.2163Z" fill="#606492"/>
<path fill-rule="evenodd" clip-rule="evenodd" d="M34.5902 21.3016C34.8673 21.7952 34.8395 22.4035 34.5197 22.8699C34.1999 23.3372 33.6434 23.5828 33.0835 23.503C33.0165 23.4937 32.9495 23.4844 32.8826 23.4751C30.9787 23.2054 29.4998 21.6805 29.2873 19.7697L33.7254 19.7565C33.7254 19.7565 34.1226 20.4671 34.5902 21.3016Z" fill="#606492"/>
<path fill-rule="evenodd" clip-rule="evenodd" d="M28.974 20.7866H34.333C34.8851 20.7866 35.3329 20.3386 35.3329 19.7866C35.3329 19.2346 34.8851 18.7866 34.333 18.7866H28.974C28.4219 18.7866 27.9741 19.2346 27.9741 19.7866C27.9741 20.3386 28.4219 20.7866 28.974 20.7866Z" fill="#40435C"/>
</svg>
