<svg width="100" height="100" viewBox="0 0 100 100" fill="none" xmlns="http://www.w3.org/2000/svg">
<path fill-rule="evenodd" clip-rule="evenodd" d="M73.0344 56.035L62.3607 79.8153C62.3607 79.8153 71.0773 80.6538 75.3219 81.0613C76.8536 81.21 78.3583 80.5801 79.3276 79.3853C81.7934 76.332 83.344 72.8697 83.9738 68.9958C84.2218 67.4823 83.694 65.9434 82.5691 64.8997C79.4499 61.9886 73.0344 56.035 73.0344 56.035Z" fill="#2E303F"/>
<path fill-rule="evenodd" clip-rule="evenodd" d="M32.458 36.8062C38.8754 33.1075 46.9187 32.4329 54.1875 35.6954C59.5306 38.0937 63.5627 42.2185 65.9209 47.118C66.7094 48.767 67.6184 50.3558 68.6419 51.8715C70.1261 54.3181 73.0808 56.0557 73.0808 56.0557C72.0289 64.9215 68.364 72.8207 62.3933 79.8667C62.3933 79.8667 59.1327 78.8107 56.3008 79.1902C54.4818 79.4353 52.6837 79.813 50.9203 80.3217C45.7305 81.9475 39.9682 81.6774 34.6251 79.2792C27.6652 76.1553 22.9309 70.1023 21.2224 63.2261L24.0198 57.6846L26.8458 54.6409L26.9956 50.4622L31.2799 45.3519L32.458 36.8062Z" fill="#2E303F"/>
<path fill-rule="evenodd" clip-rule="evenodd" d="M32.458 36.8062C38.8754 33.1075 46.9187 32.4329 54.1875 35.6954C59.5306 38.0937 63.5627 42.2185 65.9209 47.118C66.7094 48.767 67.6184 50.3558 68.6419 51.8715C70.1261 54.3181 73.0808 56.0557 73.0808 56.0557C72.0289 64.9215 68.364 72.8207 62.3933 79.8667C62.3933 79.8667 59.1327 78.8107 56.3008 79.1902C54.4818 79.4353 52.6837 79.813 50.9203 80.3217C45.7305 81.9475 39.9682 81.6774 34.6251 79.2792C27.6652 76.1553 22.9309 70.1023 21.2224 63.2261L24.8281 61.1254L26.355 58.7587L29.4571 59.0895L31.0042 64.3621L33.6798 62.2462L37.6371 62.2966L46.6408 67.0684L41.6287 59.9085L35.5643 56.125L38.641 53.2601L37.414 49.1939L47.3153 47.5339L40.3915 45.223L36.1654 44.5861L33.6779 40.8159L32.458 36.8062Z" fill="#40435C"/>
<path fill-rule="evenodd" clip-rule="evenodd" d="M32.8195 30.7039L26.0215 10.9967C25.8412 10.475 25.2724 10.1979 24.7507 10.3782C24.229 10.5584 23.9505 11.1273 24.1307 11.649L30.9288 31.3562C31.1076 31.878 31.6779 32.155 32.1996 31.9747C32.7213 31.7959 32.9983 31.2257 32.8195 30.7039Z" fill="#7C68DD"/>
<path fill-rule="evenodd" clip-rule="evenodd" d="M25.663 34.9525L14.622 30.3467C14.1131 30.1341 13.5266 30.3749 13.3142 30.8844C13.1018 31.3938 13.3431 31.98 13.8519 32.1925L24.8929 36.7984C25.4018 37.011 25.9883 36.7701 26.2007 36.2607C26.4131 35.7512 26.1718 35.1651 25.663 34.9525Z" fill="#7C68DD"/>
<path fill-rule="evenodd" clip-rule="evenodd" d="M41.0929 30.4691L44.8192 19.101C44.9912 18.5771 44.7052 18.0112 44.1806 17.8394C43.6561 17.6676 43.0907 17.9541 42.9186 18.478L39.1923 29.8461C39.0203 30.37 39.3063 30.9359 39.8309 31.1077C40.3554 31.2795 40.9208 30.993 41.0929 30.4691Z" fill="#7C68DD"/>
</svg>
