<svg width="100" height="100" viewBox="0 0 100 100" fill="none" xmlns="http://www.w3.org/2000/svg">
<path fill-rule="evenodd" clip-rule="evenodd" d="M47.1509 41.2464L45.0338 23.039C44.97 22.4902 44.4725 22.0978 43.9239 22.1604C43.3763 22.2244 42.9827 22.7217 43.0467 23.2693L45.1638 41.4767C45.2276 42.0256 45.7249 42.4191 46.2725 42.3551C46.8213 42.2913 47.2149 41.794 47.1509 41.2464Z" fill="#7C68DD"/>
<path fill-rule="evenodd" clip-rule="evenodd" d="M40.1529 43.4601L31.5411 37.4197C31.089 37.1033 30.4648 37.2129 30.1476 37.6653C29.8308 38.1161 29.9401 38.7408 30.3922 39.0572L39.0039 45.0976C39.456 45.414 40.0802 45.3044 40.397 44.8535C40.7143 44.4011 40.605 43.7765 40.1529 43.4601Z" fill="#7C68DD"/>
<path fill-rule="evenodd" clip-rule="evenodd" d="M54.2843 42.6813L59.6311 33.6226C59.9111 33.1471 59.7529 32.5334 59.277 32.2526C58.8028 31.9721 58.1886 32.13 57.9086 32.6055L52.5618 41.6642C52.2818 42.1398 52.44 42.7534 52.9143 43.0339C53.3901 43.3148 54.0043 43.1569 54.2843 42.6813Z" fill="#7C68DD"/>
<path fill-rule="evenodd" clip-rule="evenodd" d="M43.3812 51.168L41.7566 53.8135L45.2877 54.984L45.0902 57.4032L20.3521 69.543C19.6011 69.9222 18.7296 69.9875 17.9301 69.7244C17.1305 69.4614 16.4685 68.8926 16.0887 68.1406L16.0871 68.1373C15.7074 67.3853 15.6421 66.5138 15.9051 65.7143C16.1682 64.9147 16.738 64.2521 17.4895 63.874L43.3812 51.168Z" fill="#40435C"/>
<path fill-rule="evenodd" clip-rule="evenodd" d="M84.2437 54.7216C86.5698 56.3453 87.7973 59.3908 87.1041 62.474C86.4107 65.5585 83.9979 67.7854 81.2007 68.2574C81.1964 68.2763 81.1921 68.2953 81.1879 68.3142C80.3411 72.081 76.3363 74.3924 72.249 73.4735C61.5989 71.0792 63.1061 62.419 58.1261 59.2145L48.7927 57.0044L50.4788 55.2738L48.476 52.1237L51.4361 51.1043L59.5191 53.0184C65.3913 52.2538 67.7361 43.7805 78.3861 46.1748C82.4735 47.0937 85.1033 50.898 84.2565 54.6648C84.2522 54.6837 84.248 54.7026 84.2437 54.7216ZM68.0944 55.5278L75.4637 57.1845C76.6736 57.4565 77.9073 56.556 78.2178 55.1746C78.5284 53.7933 77.7988 52.4514 76.5889 52.1794C73.1698 51.4108 71.0714 52.8635 69.3152 54.4803C69.1805 54.604 68.2267 55.4035 68.0944 55.5278ZM66.97 60.5294L74.3393 62.1861C75.5492 62.4581 76.2787 63.8 75.9682 65.1813C75.6576 66.5627 74.4237 67.4644 73.2138 67.1924C69.7947 66.4237 68.52 64.2126 67.6247 61.9998C67.5559 61.8303 67.0361 60.6996 66.97 60.5294ZM82.0766 61.3438C81.8702 62.2615 80.9576 62.8391 80.0411 62.633C79.1233 62.4267 78.5469 61.5144 78.7532 60.5966C78.9593 59.68 79.8707 59.1022 80.7885 59.3085C81.7051 59.5145 82.2826 60.4272 82.0766 61.3438Z" fill="#40435C"/>
<path fill-rule="evenodd" clip-rule="evenodd" d="M32.7588 55.9779C32.6828 55.7269 32.6848 55.4559 32.7678 55.2029C32.8748 54.8789 33.1058 54.6099 33.4108 54.4569C33.5898 54.3659 33.7748 54.2729 33.9538 54.1819C34.2588 54.0279 34.6128 54.0019 34.9368 54.1079C35.2608 54.2149 35.5298 54.4459 35.6838 54.7509C36.4538 56.2759 37.8058 58.9539 38.5758 60.4799C38.7298 60.7849 38.7568 61.1379 38.6498 61.4619C38.5428 61.7869 38.3118 62.0549 38.0078 62.2089C37.8278 62.2999 37.6428 62.3929 37.4638 62.4839C37.1588 62.6369 36.8058 62.6639 36.4818 62.5569C36.1838 62.4589 35.9328 62.2559 35.7738 61.9869L33.5068 63.1029L36.8558 69.7359C37.0218 70.0649 37.0508 70.4469 36.9358 70.7979C36.8198 71.1489 36.5708 71.4389 36.2408 71.6049C35.7898 71.8329 35.2798 72.0909 34.8288 72.3179C34.4998 72.4849 34.1178 72.5129 33.7668 72.3979C33.4158 72.2829 33.1258 72.0329 32.9598 71.7029L30.6258 67.0819L27.1758 68.8209L27.8068 70.0719C28.1538 70.7579 27.8778 71.5949 27.1918 71.9419C26.7408 72.1699 26.2318 72.4269 25.7798 72.6549C25.0938 73.0009 24.2568 72.7259 23.9108 72.0399L22.6448 69.5319L19.1948 71.2739L21.1858 75.2149C21.5318 75.9009 21.2568 76.7379 20.5708 77.0849C20.1198 77.3129 19.6098 77.5699 19.1588 77.7979C18.4728 78.1439 17.6358 77.8689 17.2888 77.1829L14.8247 72.3029L13.8797 72.7679C13.0837 73.1699 12.1607 73.2399 11.3137 72.9609C10.4667 72.6819 9.76474 72.0789 9.36274 71.2829C9.36274 71.2809 9.36174 71.2799 9.36074 71.2779C8.95874 70.4829 8.88974 69.5599 9.16874 68.7129C9.44674 67.8659 10.0507 67.1639 10.8467 66.7619L32.7588 55.9779Z" fill="#606492"/>
</svg>
