<svg width="100" height="100" viewBox="0 0 100 100" fill="none" xmlns="http://www.w3.org/2000/svg">
<path fill-rule="evenodd" clip-rule="evenodd" d="M15.749 35.8206C23.1309 35.3825 25.4248 32.2519 26.1424 29.8802C27.0975 27.2288 25.7296 24.2957 23.0782 23.3245C20.6803 22.4461 18.0452 23.4729 16.837 25.6341C16.5666 26.1159 16.7396 26.725 17.2201 26.9949C17.7025 27.264 18.3123 27.0928 18.5814 26.6104C19.3195 25.2922 20.9275 24.6666 22.3903 25.2024C24.0135 25.797 24.8486 27.5977 24.2541 29.2208C24.247 29.2402 24.2411 29.2601 24.2358 29.2787C23.6602 31.2065 21.6455 33.4669 15.6299 33.8231C15.0794 33.8562 14.6581 34.3297 14.6907 34.8814C14.7238 35.4319 15.1973 35.8532 15.749 35.8206Z" fill="#2E303F"/>
<path fill-rule="evenodd" clip-rule="evenodd" d="M15.7076 35.8216C26.9748 35.617 34.2267 34.0444 45.3612 37.9543C45.881 38.1373 46.4525 37.8626 46.636 37.3416C46.819 36.8218 46.5443 36.2503 46.0233 36.0668C34.6247 32.0646 27.2058 33.6128 15.6713 33.8221C15.1189 33.8325 14.6794 34.2876 14.6897 34.84C14.7001 35.3924 15.1552 35.8319 15.7076 35.8216Z" fill="#2E303F"/>
<path fill-rule="evenodd" clip-rule="evenodd" d="M12.9492 46.0968C27.9237 42.2636 35.7558 41.8211 60.0357 50.3979C85.5662 59.4148 94.1223 48.1396 95.8319 42.7867C97.613 37.8885 95.0865 32.4516 90.1809 30.6547C85.2696 28.8557 79.8205 31.3842 78.0214 36.2956C76.7866 39.6668 77.5882 43.2915 79.8028 45.815C80.1666 46.229 80.7979 46.2714 81.2139 45.9067C81.6279 45.5428 81.6703 44.9115 81.3056 44.4955C79.5591 42.5047 78.9243 39.6438 79.8988 36.9833C81.3182 33.1083 85.6178 31.1142 89.4927 32.5336C93.3691 33.9535 95.3633 38.253 93.9439 42.128C93.9391 42.141 93.9338 42.1555 93.929 42.1685C92.3583 47.1109 84.315 56.8518 60.7007 48.5106C35.8242 39.7251 27.7946 40.2315 12.4541 44.1588C11.9194 44.2962 11.5966 44.8412 11.7326 45.3753C11.87 45.91 12.4151 46.2328 12.9492 46.0968Z" fill="#2E303F"/>
<path fill-rule="evenodd" clip-rule="evenodd" d="M42.1995 57.9894C49.3819 57.9198 60.5745 61.1586 67.6457 65.7378C69.9197 67.2104 71.7629 68.8141 72.8623 70.5062C73.8408 72.0117 74.2049 73.5768 73.6204 75.1523L73.6195 75.1549C72.7634 77.492 70.1711 78.6943 67.834 77.8382C65.4969 76.9822 64.2946 74.3898 65.1506 72.0527C65.3055 71.6298 65.5178 71.2426 65.7754 70.8998C66.106 70.4576 66.016 69.8305 65.5751 69.5003C65.1334 69.1684 64.5063 69.2585 64.1744 69.7002C63.8033 70.1965 63.4963 70.7544 63.2727 71.3649C62.0367 74.7392 63.773 78.4806 67.1461 79.7162C70.5191 80.9517 74.2601 79.2166 75.4965 75.8453C76.6712 72.6744 75.2337 69.4664 72.0846 66.6025C65.4093 60.5341 50.9419 55.9036 42.1806 55.9905C41.6288 55.9952 41.1841 56.4484 41.1906 56.9994C41.1953 57.5512 41.6485 57.9959 42.1995 57.9894Z" fill="#2E303F"/>
<path fill-rule="evenodd" clip-rule="evenodd" d="M72.2185 59.9551C78.1153 61.7733 83.771 66.3563 84.6803 71.3306C84.7802 71.8748 85.3013 72.2343 85.8436 72.1352C86.3878 72.0353 86.7473 71.5142 86.6482 70.9718C85.6266 65.3872 79.4265 60.0841 72.8072 58.0437C72.2799 57.8814 71.7195 58.1778 71.5572 58.7051C71.3948 59.2324 71.6912 59.7928 72.2185 59.9551Z" fill="#2E303F"/>
<path fill-rule="evenodd" clip-rule="evenodd" d="M74.3382 25.6996C74.3382 31.2435 70.1883 35.8266 64.8269 36.5061C64.2794 36.5757 63.8917 37.0771 63.9613 37.6246C64.0302 38.1721 64.5315 38.5598 65.079 38.4902C71.4246 37.6856 76.3379 32.2618 76.3379 25.6996C76.3379 25.1471 75.8898 24.699 75.3381 24.699C74.7863 24.699 74.3382 25.1471 74.3382 25.6996Z" fill="#8572DF"/>
<path fill-rule="evenodd" clip-rule="evenodd" d="M61.0843 33.5799C62.6704 32.0833 65.1546 31.636 67.3668 32.6403C69.5797 33.6449 70.8783 35.8094 70.7957 37.9886C70.8093 37.9947 70.8229 38.0009 70.8365 38.0071C73.5391 39.234 74.652 42.6098 73.3208 45.5424C69.852 53.1834 63.5698 50.6938 60.3786 53.9405L48.2788 79.8078C48.0115 80.3967 47.5207 80.8555 46.915 81.083C46.3092 81.3105 45.6386 81.2885 45.0489 81.0208L45.0463 81.0196C44.4566 80.7519 43.9978 80.2612 43.7703 79.6554C43.5428 79.0497 43.5652 78.3782 43.8333 77.7897L55.9332 51.9225C56.2766 47.383 50.2662 44.2922 53.7349 36.6512C55.0662 33.7186 58.341 32.3346 61.0436 33.5615C61.0571 33.5676 61.0707 33.5738 61.0843 33.5799ZM59.1638 45.8609L61.564 40.5737C61.9581 39.7056 61.4733 38.6362 60.4823 38.1862C59.4912 37.7363 58.3671 38.0755 57.973 38.9435C56.8594 41.3966 57.6245 43.2033 58.5664 44.7782C58.6385 44.8989 59.091 45.7419 59.1638 45.8609ZM62.7523 47.4899L65.1525 42.2027C65.5465 41.3346 66.6706 40.9955 67.6617 41.4454C68.6528 41.8954 69.1383 42.9652 68.7443 43.8332C67.6307 46.2864 65.767 46.8997 63.9614 47.2273C63.8231 47.2525 62.8907 47.4668 62.7523 47.4899ZM65.7293 36.2474C66.3877 36.5463 66.6797 37.3236 66.3811 37.9812C66.0822 38.6396 65.3053 38.9307 64.6469 38.6318C63.9893 38.3332 63.6969 37.5568 63.9959 36.8984C64.2944 36.2408 65.0717 35.9489 65.7293 36.2474Z" fill="#40435C"/>
<path fill-rule="evenodd" clip-rule="evenodd" d="M55.7732 50.0261C55.7732 50.0261 65.2248 48.5072 63.3498 39.7295C63.3498 39.7295 65.7223 37.2243 64.0534 32.2856C64.0534 32.2856 62.8266 31.918 61.1072 33.6441L61.0232 38.5743C61.0232 38.5743 61.9235 39.2435 61.6151 40.4083C61.4604 40.9926 61.2743 41.1969 61.2743 41.1969L59.2035 45.8473L54.9646 48.046L55.7732 50.0261Z" fill="#2E303F"/>
<path fill-rule="evenodd" clip-rule="evenodd" d="M49.1798 65.7049C49.0128 65.5909 48.8838 65.4269 48.8118 65.2359C48.7198 64.9899 48.7288 64.7179 48.8368 64.4789C48.9008 64.3379 48.9668 64.1929 49.0308 64.0529C49.1388 63.8139 49.3378 63.6279 49.5838 63.5349C49.8298 63.4429 50.1018 63.4519 50.3408 63.5609C51.5368 64.1039 53.6368 65.0569 54.8328 65.5999C55.0718 65.7089 55.2578 65.9079 55.3508 66.1529C55.4428 66.3989 55.4338 66.6709 55.3248 66.9099C55.2618 67.0509 55.1958 67.1959 55.1318 67.3359C55.0228 67.5749 54.8248 67.7609 54.5788 67.8539C54.3528 67.9389 54.1048 67.9379 53.8798 67.8529L53.0598 69.6139L58.2608 71.9749C58.5188 72.0919 58.7198 72.3069 58.8198 72.5729C58.9198 72.8379 58.9098 73.1329 58.7918 73.3909C58.6318 73.7449 58.4498 74.1449 58.2898 74.4979C58.1718 74.7569 57.9568 74.9579 57.6918 75.0579C57.4258 75.1569 57.1318 75.1479 56.8728 75.0299L53.2498 73.3849L52.0198 76.0889L53.0008 76.5339C53.5388 76.7789 53.7768 77.4129 53.5328 77.9509C53.3718 78.3039 53.1908 78.7039 53.0298 79.0579C52.7858 79.5959 52.1518 79.8339 51.6138 79.5899L49.6468 78.6969L48.4188 81.4019L51.5098 82.8049C52.0478 83.0489 52.2858 83.6829 52.0418 84.2209C51.8818 84.5749 51.6998 84.9749 51.5388 85.3289C51.2948 85.8669 50.6608 86.1049 50.1228 85.8609L46.2958 84.1229L45.9538 84.8579C45.6708 85.4819 45.1508 85.9679 44.5088 86.2089C43.8678 86.4499 43.1568 86.4259 42.5318 86.1429L42.5288 86.1409C41.9048 85.8579 41.4188 85.3379 41.1778 84.6959C40.9368 84.0549 40.9608 83.3439 41.2438 82.7189L49.1798 65.7049Z" fill="#606492"/>
<path fill-rule="evenodd" clip-rule="evenodd" d="M64.8269 36.5061C64.3739 36.5636 63.9123 36.5935 63.4443 36.5935C60.9305 36.5935 58.6148 35.7406 56.7707 34.3083C56.3347 33.9696 55.7062 34.0484 55.3675 34.4844C55.0288 34.9204 55.1076 35.5489 55.5436 35.8876C57.7272 37.5834 60.4682 38.5932 63.4443 38.5932C63.9975 38.5932 64.5436 38.5584 65.079 38.4902C65.6265 38.4213 66.015 37.92 65.9454 37.3725C65.8758 36.825 65.3751 36.4372 64.8269 36.5061Z" fill="#8572DF"/>
<path fill-rule="evenodd" clip-rule="evenodd" d="M55.2947 29.9085C57.4561 29.6181 59.7348 30.704 60.9457 32.8101C62.1572 34.9169 61.9492 37.4325 60.611 39.1544C60.6184 39.1673 60.6259 39.1803 60.6333 39.1932C62.1128 41.7662 61.0475 45.1574 58.2555 46.7627C50.9808 50.9456 47.3305 45.2588 42.8446 46.0344L17.9275 59.9863C17.3669 60.3087 16.7006 60.3951 16.0759 60.2265C15.4512 60.0579 14.9193 59.6489 14.5965 59.0874L14.5951 59.085C14.2723 58.5235 14.1859 57.8573 14.3545 57.2326C14.523 56.6078 14.9329 56.0755 15.494 55.754L40.411 41.802C43.338 38.3153 40.2591 32.2988 47.5338 28.1159C50.3257 26.5105 53.793 27.2967 55.2724 29.8697C55.2799 29.8826 55.2873 29.8955 55.2947 29.9085ZM46.571 38.7632L51.6047 35.8689C52.4311 35.3937 52.6613 34.2423 52.1187 33.2987C51.5762 32.3551 50.4653 31.9748 49.6389 32.45C47.3034 33.7929 46.8709 35.7066 46.7174 37.5353C46.7055 37.6754 46.5813 38.624 46.571 38.7632ZM48.5354 42.1796L53.5691 39.2853C54.3955 38.8101 55.5064 39.1904 56.0489 40.1339C56.5915 41.0775 56.3618 42.2297 55.5353 42.7049C53.1999 44.0478 51.3284 43.4588 49.6707 42.6716C49.5436 42.6114 48.6613 42.2416 48.5354 42.1796ZM57.5115 34.7847C57.872 35.4116 57.6557 36.2132 57.0296 36.5732C56.4027 36.9336 55.6019 36.7168 55.2415 36.0899C54.8815 35.4639 55.097 34.6627 55.7239 34.3023C56.35 33.9423 57.1516 34.1586 57.5115 34.7847Z" fill="#40435C"/>
<path fill-rule="evenodd" clip-rule="evenodd" d="M26.886 49.0567C26.817 48.8667 26.8069 48.6587 26.8609 48.4617C26.9289 48.2077 27.095 47.9917 27.323 47.8617C27.457 47.7847 27.595 47.7047 27.729 47.6277C27.956 47.4967 28.226 47.4617 28.48 47.5307C28.733 47.5987 28.949 47.7647 29.08 47.9927C29.734 49.1317 30.884 51.1307 31.539 52.2697C31.67 52.4967 31.705 52.7677 31.636 53.0207C31.568 53.2737 31.402 53.4897 31.174 53.6207C31.041 53.6977 30.902 53.7767 30.769 53.8537C30.541 53.9847 30.271 54.0197 30.017 53.9517C29.785 53.8887 29.583 53.7427 29.451 53.5437L27.757 54.4947L30.604 59.4467C30.745 59.6927 30.783 59.9847 30.709 60.2587C30.635 60.5327 30.456 60.7657 30.21 60.9067C29.873 61.1007 29.492 61.3197 29.156 61.5137C28.91 61.6547 28.618 61.6927 28.344 61.6187C28.07 61.5447 27.836 61.3647 27.695 61.1187L25.711 57.6687L23.135 59.1477L23.672 60.0817C23.967 60.5937 23.79 61.2477 23.278 61.5427C22.941 61.7357 22.56 61.9547 22.224 62.1487C21.711 62.4427 21.058 62.2667 20.763 61.7547L19.686 59.8817L17.111 61.3627L18.804 64.3057C19.098 64.8177 18.922 65.4718 18.409 65.7658C18.072 65.9598 17.692 66.1787 17.355 66.3728C16.843 66.6668 16.189 66.4908 15.895 65.9778L13.8 62.3348L13.093 62.7318C12.499 63.0728 11.793 63.1647 11.132 62.9867C10.47 62.8077 9.90596 62.3737 9.56496 61.7797L9.56298 61.7757C9.22098 61.1817 9.12897 60.4767 9.30797 59.8147C9.48697 59.1527 9.92097 58.5887 10.515 58.2477L26.886 49.0567Z" fill="#606492"/>
<path fill-rule="evenodd" clip-rule="evenodd" d="M56.7707 34.3083C54.2036 32.3143 52.5497 29.1983 52.5497 25.6996C52.5497 19.687 57.4311 14.8049 63.4443 14.8049C69.4569 14.8049 74.3382 19.687 74.3382 25.6996C74.3382 26.2513 74.7863 26.6994 75.3381 26.6994C75.8898 26.6994 76.3379 26.2513 76.3379 25.6996C76.3379 18.5828 70.5604 12.8053 63.4443 12.8053C56.3276 12.8053 50.5501 18.5828 50.5501 25.6996C50.5501 29.8403 52.5057 33.5279 55.5436 35.8876C55.9796 36.2264 56.6081 36.1475 56.9468 35.7115C57.2855 35.2755 57.2067 34.6463 56.7707 34.3083Z" fill="#8572DF"/>
</svg>
