<svg width="100" height="100" viewBox="0 0 100 100" fill="none" xmlns="http://www.w3.org/2000/svg">
<path fill-rule="evenodd" clip-rule="evenodd" d="M65.4441 25.5035C65.4441 24.2807 64.9586 23.1083 64.0935 22.2431C63.2295 21.3792 62.0559 20.8925 60.8344 20.8925C51.7612 20.8925 31.6829 20.8925 22.6097 20.8925C21.3869 20.8925 20.2145 21.3792 19.3506 22.2431C18.4854 23.1083 18 24.2807 18 25.5035C18 36.2062 18 62.6418 18 73.3457C18 74.5685 18.4854 75.7409 19.3506 76.6049C20.2145 77.47 21.3869 77.9555 22.6097 77.9555C31.6829 77.9555 51.7612 77.9555 60.8344 77.9555C62.0559 77.9555 63.2295 77.47 64.0935 76.6049C64.9586 75.7409 65.4441 74.5685 65.4441 73.3457C65.4441 62.6418 65.4441 36.2062 65.4441 25.5035Z" fill="#40435C"/>
<path fill-rule="evenodd" clip-rule="evenodd" d="M57.1971 20.8932H26.2494V28.0475C26.2494 28.8087 26.5516 29.5389 27.0903 30.0774C27.6282 30.6156 28.3585 30.9181 29.12 30.9181C35.016 30.9181 48.4305 30.9181 54.3265 30.9181C55.088 30.9181 55.8175 30.6156 56.3562 30.0774C56.8949 29.5389 57.1971 28.8087 57.1971 28.0475C57.1971 25.0849 57.1971 20.8932 57.1971 20.8932Z" fill="#606492"/>
<path d="M41.7221 28.9874C48.2221 28.9874 53.4913 26.0801 53.4913 22.4937C53.4913 18.9073 48.2221 16 41.7221 16C35.2221 16 29.9529 18.9073 29.9529 22.4937C29.9529 26.0801 35.2221 28.9874 41.7221 28.9874Z" fill="#606492"/>
<path d="M41.7239 25.5293C43.3998 25.5293 44.7583 24.1708 44.7583 22.495C44.7583 20.8192 43.3998 19.4606 41.7239 19.4606C40.0481 19.4606 38.6896 20.8192 38.6896 22.495C38.6896 24.1708 40.0481 25.5293 41.7239 25.5293Z" fill="#2E303F"/>
<path fill-rule="evenodd" clip-rule="evenodd" d="M30.0191 36.8219L29.9269 36.8206C27.985 36.8206 26.3812 38.3938 26.3319 40.3247L26.3306 40.4169C26.3306 42.3899 27.9539 44.0132 29.9269 44.0132C31.9 44.0132 33.5232 42.3899 33.5232 40.4169C33.5232 38.4749 31.95 36.8712 30.0191 36.8219ZM28.3309 40.4169C28.3309 41.2924 29.0514 42.0128 29.9269 42.0128C30.8025 42.0128 31.5229 41.2924 31.5229 40.4169C31.5229 39.5413 30.8025 38.8209 29.9269 38.8209C29.0514 38.8209 28.3309 39.5413 28.3309 40.4169Z" fill="#7C68DD"/>
<path fill-rule="evenodd" clip-rule="evenodd" d="M30.0191 55.072L29.9269 55.0707C27.985 55.0707 26.3812 56.6439 26.3319 58.5748L26.3306 58.667C26.3306 60.64 27.9539 62.2633 29.9269 62.2633C31.9 62.2633 33.5232 60.64 33.5232 58.667C33.5232 56.7251 31.95 55.1213 30.0191 55.072ZM29.8451 57.0729C29.0338 57.1145 28.3744 57.7739 28.3329 58.5852L28.3309 58.667C28.3309 59.5425 29.0514 60.2629 29.9269 60.2629C30.8025 60.2629 31.5229 59.5425 31.5229 58.667C31.5229 57.7914 30.8025 57.071 29.9269 57.071L29.8451 57.0729Z" fill="#7C68DD"/>
<path fill-rule="evenodd" clip-rule="evenodd" d="M27.0329 49.4246V48.1266C27.0329 47.251 27.7533 46.5306 28.6289 46.5306H31.225C32.1005 46.5306 32.821 47.251 32.821 48.1266V49.4246C32.821 49.9763 33.2694 50.4248 33.8211 50.4248C34.3728 50.4248 34.8213 49.9763 34.8213 49.4246V48.1266C34.8213 46.1535 33.1981 44.5303 31.225 44.5303H28.6289C26.6558 44.5303 25.0326 46.1535 25.0326 48.1266V49.4246C25.0326 49.9763 25.481 50.4248 26.0327 50.4248C26.5844 50.4248 27.0329 49.9763 27.0329 49.4246Z" fill="#7C68DD"/>
<path fill-rule="evenodd" clip-rule="evenodd" d="M27.0329 67.6744V66.3764C27.0329 65.5008 27.7533 64.7804 28.6289 64.7804H31.225C32.1005 64.7804 32.821 65.5008 32.821 66.3764V67.6744C32.821 68.2261 33.2694 68.6746 33.8211 68.6746C34.3728 68.6746 34.8213 68.2261 34.8213 67.6744V66.3764C34.8213 64.4033 33.1981 62.7801 31.225 62.7801H28.6289C26.6558 62.7801 25.0326 64.4033 25.0326 66.3764V67.6744C25.0326 68.2261 25.481 68.6746 26.0327 68.6746C26.5844 68.6746 27.0329 68.2261 27.0329 67.6744Z" fill="#7C68DD"/>
<path fill-rule="evenodd" clip-rule="evenodd" d="M40.3934 40.943H55.0271C55.58 40.943 56.0272 40.4941 56.0272 39.9421C56.0272 39.3901 55.58 38.9425 55.0271 38.9425H40.3934C39.8423 38.9425 39.3933 39.3901 39.3933 39.9421C39.3933 40.4941 39.8423 40.943 40.3934 40.943Z" fill="#606492"/>
<path fill-rule="evenodd" clip-rule="evenodd" d="M40.3934 60.519H55.0271C55.58 60.519 56.0272 60.0701 56.0272 59.5181C56.0272 58.9661 55.58 58.5185 55.0271 58.5185H40.3934C39.8423 58.5185 39.3933 58.9661 39.3933 59.5181C39.3933 60.0701 39.8423 60.519 40.3934 60.519Z" fill="#606492"/>
<path fill-rule="evenodd" clip-rule="evenodd" d="M40.3945 46.1408H49.6585C50.211 46.1408 50.6585 45.6929 50.6585 45.1404C50.6585 44.5886 50.211 44.1408 49.6585 44.1408H40.3945C39.843 44.1408 39.3944 44.5886 39.3944 45.1404C39.3944 45.6929 39.843 46.1408 40.3945 46.1408Z" fill="#606492"/>
<path fill-rule="evenodd" clip-rule="evenodd" d="M40.3945 65.7171H49.6585C50.211 65.7171 50.6585 65.2692 50.6585 64.7167C50.6585 64.1649 50.211 63.7171 49.6585 63.7171H40.3945C39.843 63.7171 39.3944 64.1649 39.3944 64.7167C39.3944 65.2692 39.843 65.7171 40.3945 65.7171Z" fill="#606492"/>
<path d="M64.9728 83.2704C74.5045 83.2704 82.2314 75.5434 82.2314 66.0117C82.2314 56.48 74.5045 48.753 64.9728 48.753C55.441 48.753 47.7141 56.48 47.7141 66.0117C47.7141 75.5434 55.441 83.2704 64.9728 83.2704Z" fill="#2E303F"/>
<path d="M64.9727 77.3751C66.5392 77.3751 67.809 76.1052 67.809 74.5387C67.809 72.9722 66.5392 71.7024 64.9727 71.7024C63.4062 71.7024 62.1363 72.9722 62.1363 74.5387C62.1363 76.1052 63.4062 77.3751 64.9727 77.3751Z" fill="#7C68DD"/>
<path fill-rule="evenodd" clip-rule="evenodd" d="M68.8723 55.7706C68.9072 55.4864 68.8185 55.2021 68.6303 54.9878C68.4408 54.7734 68.1693 54.6503 67.8829 54.6503H62.0624C61.776 54.6503 61.5045 54.7734 61.315 54.9878C61.1254 55.2021 61.0381 55.4864 61.073 55.7706C61.4279 58.6269 62.3622 66.147 62.6807 68.7144C62.7426 69.213 63.1673 69.5885 63.6701 69.5885C64.4282 69.5885 65.5171 69.5885 66.2752 69.5885C66.778 69.5885 67.2014 69.213 67.2646 68.7144C67.5832 66.147 68.5174 58.6269 68.8723 55.7706Z" fill="#7C68DD"/>
</svg>
