<svg width="100" height="100" viewBox="0 0 100 100" fill="none" xmlns="http://www.w3.org/2000/svg">
<path fill-rule="evenodd" clip-rule="evenodd" d="M59.9939 68.8044C59.9939 68.8044 41.9031 76.4892 33.3748 80.1122C32.4577 80.5014 31.4053 80.3944 30.5847 79.8282C29.7656 79.2626 29.2933 78.3152 29.3325 77.3197C29.8942 62.7329 26.1358 50.6554 18.0615 41.088C17.4831 40.4116 17.2483 39.5075 17.4235 38.6354C17.5993 37.7618 18.1655 37.0187 18.96 36.6177C25.8157 33.1494 40.6336 25.675 40.6336 25.675L59.9939 68.8044Z" fill="#CADCF0"/>
<path fill-rule="evenodd" clip-rule="evenodd" d="M26.5999 32.7575C33.3249 29.3615 40.6339 25.6755 40.6339 25.6755L59.9949 68.8046L50.2329 72.9506L39.7119 72.9306C36.0219 72.9226 33.0199 69.9566 32.9699 66.2776C32.7599 54.2926 30.7069 43.0895 26.5999 32.7575Z" fill="#A4BBDB"/>
<path fill-rule="evenodd" clip-rule="evenodd" d="M70.3231 66.598C70.1317 68.5195 68.5129 69.9812 66.5823 69.9778C60.1541 69.9697 46.3623 69.9422 39.7163 69.9296C37.6642 69.925 35.9961 68.2753 35.9674 66.2243C35.7015 51.004 32.5373 37.0104 26.108 24.4029C25.7296 23.6772 25.7239 22.8139 26.0908 22.0825C26.4576 21.3511 27.1535 20.8409 27.9618 20.7102C33.4682 19.8137 43.4813 18.1972 43.4813 18.1972L45.4176 21.4222L45.021 25.1149L49.4967 28.0899L50.8449 32.5863L49.2296 36.2675L49.2422 39.5579L53.2215 45.3726L54.6901 37.3154L57.6846 35.7149L59.676 31.7402L59.3757 27.1957L58.4276 23.9421L62.2143 21.7111L63.5843 18C63.5843 18 74.2956 20.4316 79.8318 21.6881C80.601 21.8635 81.2465 22.384 81.5801 23.0983C81.9137 23.8136 81.8988 24.6425 81.5377 25.3453C76.0668 36.2687 72.0268 49.5251 70.3231 66.598Z" fill="#CADCF0"/>
<path d="M69.9306 81.069C80.1697 81.069 88.4702 72.7686 88.4702 62.5294C88.4702 52.2902 80.1697 43.9898 69.9306 43.9898C59.6914 43.9898 51.3909 52.2902 51.3909 62.5294C51.3909 72.7686 59.6914 81.069 69.9306 81.069Z" fill="#E9F3FC"/>
<path d="M69.9304 74.7351C71.6132 74.7351 72.9773 73.371 72.9773 71.6882C72.9773 70.0055 71.6132 68.6414 69.9304 68.6414C68.2477 68.6414 66.8835 70.0055 66.8835 71.6882C66.8835 73.371 68.2477 74.7351 69.9304 74.7351Z" fill="#7C68DD"/>
<path fill-rule="evenodd" clip-rule="evenodd" d="M74.1296 51.4439C74.1643 51.1597 74.0762 50.8756 73.8871 50.66C73.6979 50.4461 73.4264 50.3237 73.1405 50.3237C71.477 50.3237 68.3839 50.3237 66.7204 50.3237C66.4345 50.3237 66.1616 50.4461 65.9724 50.66C65.7832 50.8756 65.6952 51.1597 65.7313 51.4439C66.1067 54.4713 67.1392 62.7781 67.4771 65.4953C67.5392 65.995 67.9622 66.3706 68.4662 66.3706C69.3037 66.3706 70.5572 66.3706 71.3947 66.3706C71.8972 66.3706 72.3217 65.995 72.3838 65.4953C72.7217 62.7781 73.7528 54.4713 74.1296 51.4439Z" fill="#7C68DD"/>
</svg>
