<svg width="100" height="100" viewBox="0 0 100 100" fill="none" xmlns="http://www.w3.org/2000/svg">
<path fill-rule="evenodd" clip-rule="evenodd" d="M62.9349 33.5969C62.9349 31.0501 60.8708 28.986 58.3251 28.986C50.0709 28.986 32.864 28.986 24.6098 28.986C22.0641 28.986 20 31.0501 20 33.5969V76.0158C20 78.5614 22.0641 80.6255 24.6098 80.6255C32.864 80.6255 50.0709 80.6255 58.3251 80.6255C60.8708 80.6255 62.9349 78.5614 62.9349 76.0158C62.9349 66.2134 62.9349 43.3992 62.9349 33.5969Z" fill="#CADCF0"/>
<path fill-rule="evenodd" clip-rule="evenodd" d="M28.2234 28.9873C26.9404 32.2953 26.1324 35.9943 25.8694 39.6133C25.8644 39.6863 25.8614 39.7583 25.8614 39.8313V67.1164C25.8614 71.2714 29.2304 74.6394 33.3854 74.6394H62.9345V33.5973C62.9345 31.0513 60.8705 28.9873 58.3245 28.9873H28.2234Z" fill="#A4BBDB"/>
<path fill-rule="evenodd" clip-rule="evenodd" d="M71.7974 24.5242C71.7974 22.0263 69.7722 20 67.2733 20C58.642 20 40.6722 20 40.6722 20C33.7537 21.2856 29.5154 30.8477 28.8625 39.8304V67.1154C28.8625 69.6144 30.8877 71.6395 33.3856 71.6395C41.6342 71.6395 59.0257 71.6395 67.2733 71.6395C68.4733 71.6395 69.6243 71.1624 70.4718 70.315C71.3203 69.4664 71.7974 68.3154 71.7974 67.1154V24.5242Z" fill="#CADCF0"/>
<path fill-rule="evenodd" clip-rule="evenodd" d="M39.2465 30.5308C40.0539 30.206 40.6856 29.5532 40.9826 28.7347C41.2795 27.9161 41.2139 27.0109 40.8024 26.2435C39.5523 23.9336 38.5436 21.002 40.6722 20C33.7537 21.2856 29.5154 30.8477 28.8625 39.8304C30.2661 34.9537 35.6076 32.011 39.2465 30.5308Z" fill="#E9F3FC"/>
<path fill-rule="evenodd" clip-rule="evenodd" d="M61.2271 64.9857C60.237 63.9957 58.7578 63.6772 57.4476 64.1726C52.6027 66.0041 46.9249 64.9551 43.026 61.0561C37.6911 55.7212 37.691 47.0583 43.0259 41.7234C48.3609 36.3885 57.023 36.3893 62.3579 41.7242C66.2569 45.6231 67.3067 51.3001 65.5058 56.1569C65.0151 57.4544 65.3305 58.9195 66.3119 59.9009C67.1879 60.8242 68.1001 61.7364 68.1001 61.7364L63.0389 66.7976L61.2271 64.9857ZM45.4205 44.118C49.4343 40.1042 55.9504 40.1042 59.9641 44.118C63.9779 48.1317 63.9779 54.6478 59.9641 58.6616C55.9504 62.6753 49.4343 62.6753 45.4205 58.6616C41.4068 54.6478 41.4068 48.1317 45.4205 44.118Z" fill="#8572DF"/>
<path fill-rule="evenodd" clip-rule="evenodd" d="M68.555 59.961C68.3772 59.7832 68.1365 59.684 67.8862 59.6838C67.6359 59.6836 67.396 59.7834 67.2191 59.9604C65.8468 61.3326 62.7264 64.4531 61.3549 65.8245C61.1772 66.0023 61.0774 66.2422 61.0776 66.4924C61.0778 66.7427 61.1769 66.9834 61.3547 67.1612C62.9452 68.7517 67.0545 72.861 70.0962 75.9027C71.0509 76.8573 72.3451 77.3935 73.6959 77.3932C75.045 77.3929 76.3396 76.8568 77.2943 75.9021L77.2958 75.9005C78.2505 74.9458 78.7867 73.6512 78.787 72.3021C78.7873 70.9514 78.2511 69.6571 77.2964 68.7025C74.2547 65.6608 70.1454 61.5515 68.555 59.961Z" fill="#A4BBDB"/>
</svg>
