<svg width="100" height="100" viewBox="0 0 100 100" fill="none" xmlns="http://www.w3.org/2000/svg">
<path fill-rule="evenodd" clip-rule="evenodd" d="M15.7482 35.8206C23.1301 35.3826 25.424 32.2519 26.1416 29.8803C27.0967 27.2288 25.7288 24.2957 23.0774 23.3245C20.6795 22.4461 18.0444 23.4729 16.8362 25.6341C16.5658 26.1159 16.7388 26.725 17.2193 26.9949C17.7017 27.264 18.3115 27.0928 18.5806 26.6104C19.3187 25.2922 20.9267 24.6666 22.3895 25.2024C24.0127 25.797 24.8478 27.5977 24.2533 29.2208C24.2462 29.2402 24.2403 29.2601 24.235 29.2787C23.6594 31.2066 21.6447 33.4669 15.6291 33.8231C15.0787 33.8562 14.6573 34.3297 14.6899 34.8814C14.723 35.4319 15.1965 35.8532 15.7482 35.8206Z" fill="#E9F3FC"/>
<path fill-rule="evenodd" clip-rule="evenodd" d="M15.7068 35.8216C26.974 35.617 34.2259 34.0444 45.3605 37.9543C45.8802 38.1373 46.4517 37.8626 46.6352 37.3416C46.8182 36.8219 46.5435 36.2503 46.0225 36.0668C34.6239 32.0646 27.205 33.6128 15.6705 33.8221C15.1181 33.8325 14.6786 34.2876 14.6889 34.84C14.6993 35.3924 15.1544 35.8319 15.7068 35.8216Z" fill="#E9F3FC"/>
<path fill-rule="evenodd" clip-rule="evenodd" d="M12.9484 46.0968C27.9229 42.2636 35.755 41.8211 60.0349 50.3979C85.5654 59.4148 94.1215 48.1396 95.8311 42.7867C97.6122 37.8885 95.0857 32.4516 90.1802 30.6547C85.2688 28.8557 79.8197 31.3842 78.0207 36.2956C76.7858 39.6668 77.5874 43.2915 79.802 45.815C80.1658 46.229 80.7971 46.2714 81.2131 45.9067C81.6271 45.5428 81.6696 44.9115 81.3048 44.4955C79.5583 42.5047 78.9235 39.6438 79.8981 36.9833C81.3174 33.1083 85.617 31.1142 89.4919 32.5336C93.3683 33.9535 95.3625 38.253 93.9431 42.128C93.9383 42.141 93.933 42.1555 93.9283 42.1685C92.3575 47.1109 84.3142 56.8518 60.6999 48.5106C35.8234 39.7251 27.7939 40.2315 12.4533 44.1588C11.9186 44.2962 11.5959 44.8412 11.7318 45.3753C11.8693 45.91 12.4143 46.2328 12.9484 46.0968Z" fill="#E9F3FC"/>
<path fill-rule="evenodd" clip-rule="evenodd" d="M42.1987 57.9894C49.3811 57.9198 60.5737 61.1586 67.6449 65.7378C69.9189 67.2104 71.7621 68.8141 72.8615 70.5062C73.84 72.0117 74.2041 73.5768 73.6196 75.1523L73.6187 75.1549C72.7626 77.492 70.1703 78.6943 67.8332 77.8382C65.4961 76.9822 64.2938 74.3898 65.1498 72.0527C65.3047 71.6298 65.517 71.2426 65.7746 70.8998C66.1052 70.4576 66.0152 69.8305 65.5743 69.5003C65.1326 69.1684 64.5055 69.2585 64.1736 69.7002C63.8025 70.1965 63.4955 70.7544 63.2719 71.3648C62.0359 74.7392 63.7722 78.4806 67.1453 79.7162C70.5184 80.9517 74.2593 79.2166 75.4957 75.8453C76.6704 72.6744 75.2329 69.4664 72.0838 66.6025C65.4085 60.5341 50.9411 55.9036 42.1798 55.9905C41.628 55.9952 41.1833 56.4484 41.1898 56.9994C41.1945 57.5512 41.6477 57.9959 42.1987 57.9894Z" fill="#E9F3FC"/>
<path fill-rule="evenodd" clip-rule="evenodd" d="M72.2178 59.9551C78.1146 61.7733 83.7703 66.3563 84.6795 71.3306C84.7794 71.8747 85.3005 72.2343 85.8429 72.1352C86.387 72.0353 86.7466 71.5142 86.6475 70.9718C85.6258 65.3872 79.4257 60.0841 72.8064 58.0437C72.2791 57.8814 71.7187 58.1778 71.5564 58.7051C71.3941 59.2324 71.6905 59.7928 72.2178 59.9551Z" fill="#E9F3FC"/>
<path fill-rule="evenodd" clip-rule="evenodd" d="M74.3375 25.6996C74.3375 31.2435 70.1875 35.8266 64.8262 36.5061C64.2787 36.5757 63.8909 37.0771 63.9605 37.6246C64.0294 38.1721 64.5308 38.5598 65.0783 38.4902C71.4238 37.6857 76.3371 32.2618 76.3371 25.6996C76.3371 25.1471 75.8891 24.699 75.3373 24.699C74.7855 24.699 74.3375 25.1471 74.3375 25.6996Z" fill="#8572DF"/>
<path fill-rule="evenodd" clip-rule="evenodd" d="M61.0835 33.58C62.6696 32.0833 65.1539 31.6361 67.366 32.6403C69.579 33.6449 70.8775 35.8094 70.795 37.9886C70.8085 37.9948 70.8222 38.0009 70.8357 38.0071C73.5383 39.234 74.6512 42.6099 73.32 45.5424C69.8513 53.1835 63.569 50.6938 60.3779 53.9406L48.2781 79.8078C48.0107 80.3967 47.52 80.8555 46.9142 81.083C46.3084 81.3105 45.6378 81.2885 45.0481 81.0208L45.0456 81.0197C44.4558 80.7519 43.997 80.2612 43.7695 79.6554C43.542 79.0497 43.5644 78.3782 43.8326 77.7897L55.9324 51.9225C56.2759 47.383 50.2654 44.2922 53.7342 36.6512C55.0654 33.7186 58.3402 32.3346 61.0428 33.5615C61.0564 33.5676 61.0699 33.5738 61.0835 33.58ZM59.1631 45.8609L61.5632 40.5737C61.9573 39.7056 61.4726 38.6362 60.4815 38.1863C59.4904 37.7363 58.3663 38.0755 57.9722 38.9435C56.8586 41.3966 57.6237 43.2033 58.5657 44.7782C58.6377 44.8989 59.0902 45.7419 59.1631 45.8609ZM62.7515 47.49L65.1517 42.2027C65.5458 41.3347 66.6698 40.9955 67.6609 41.4455C68.652 41.8954 69.1376 42.9652 68.7435 43.8333C67.6299 46.2864 65.7662 46.8997 63.9607 47.2273C63.8223 47.2525 62.8899 47.4668 62.7515 47.49ZM65.7285 36.2474C66.387 36.5463 66.6789 37.3236 66.3804 37.9812C66.0814 38.6397 65.3046 38.9307 64.6461 38.6318C63.9885 38.3333 63.6962 37.5568 63.9951 36.8984C64.2936 36.2408 65.0709 35.9489 65.7285 36.2474Z" fill="#CADCF0"/>
<path fill-rule="evenodd" clip-rule="evenodd" d="M55.7724 50.0261C55.7724 50.0261 65.2241 48.5072 63.349 39.7295C63.349 39.7295 65.7215 37.2243 64.0527 32.2856C64.0527 32.2856 62.8259 31.918 61.1064 33.6441L61.0224 38.5743C61.0224 38.5743 61.9227 39.2436 61.6143 40.4083C61.4597 40.9926 61.2735 41.1969 61.2735 41.1969L59.2027 45.8473L54.9638 48.0461L55.7724 50.0261Z" fill="#A4BBDB"/>
<path fill-rule="evenodd" clip-rule="evenodd" d="M49.1792 65.7054C49.0132 65.5914 48.8842 65.4284 48.8122 65.2364C48.7192 64.9904 48.7282 64.7184 48.8372 64.4794C48.9012 64.3394 48.9672 64.1934 49.0302 64.0534C49.1392 63.8144 49.3382 63.6284 49.5842 63.5364C49.8292 63.4434 50.1012 63.4524 50.3402 63.5614C51.5372 64.1044 53.6372 65.0574 54.8332 65.6004C55.0722 65.7094 55.2582 65.9084 55.3502 66.1534C55.4422 66.3994 55.4332 66.6714 55.3252 66.9104C55.2612 67.0514 55.1952 67.1964 55.1312 67.3374C55.0232 67.5764 54.8242 67.7624 54.5782 67.8544C54.3522 67.9394 54.1042 67.9384 53.8802 67.8534L53.0592 69.6144L58.2602 71.9754C58.5182 72.0924 58.7192 72.3074 58.8192 72.5734C58.9192 72.8384 58.9092 73.1334 58.7922 73.3914C58.6312 73.7454 58.4502 74.1454 58.2892 74.4994C58.1722 74.7574 57.9572 74.9584 57.6912 75.0584C57.4262 75.1584 57.1312 75.1484 56.8732 75.0304L53.2492 73.3854L52.0192 76.0894L53.0002 76.5354C53.5382 76.7794 53.7762 77.4134 53.5322 77.9514C53.3712 78.3054 53.1902 78.7044 53.0292 79.0584C52.7852 79.5964 52.1512 79.8344 51.6132 79.5904L49.6472 78.6974L48.4192 81.4024L51.5102 82.8054C52.0482 83.0494 52.2862 83.6844 52.0422 84.2214C51.8812 84.5754 51.7002 84.9754 51.5392 85.3294C51.2952 85.8674 50.6612 86.1054 50.1232 85.8614L46.2962 84.1234L45.9542 84.8584C45.6702 85.4824 45.1512 85.9684 44.5092 86.2094C43.8672 86.4504 43.1562 86.4264 42.5322 86.1434L42.5292 86.1414C41.9042 85.8584 41.4182 85.3384 41.1772 84.6974C40.9362 84.0554 40.9602 83.3444 41.2442 82.7204L49.1792 65.7054Z" fill="#A4BBDB"/>
<path fill-rule="evenodd" clip-rule="evenodd" d="M64.8261 36.5061C64.3731 36.5637 63.9115 36.5935 63.4436 36.5935C60.9297 36.5935 58.6141 35.7406 56.7699 34.3083C56.3339 33.9696 55.7054 34.0484 55.3667 34.4844C55.028 34.9204 55.1068 35.5489 55.5428 35.8876C57.7264 37.5834 60.4675 38.5932 63.4436 38.5932C63.9967 38.5932 64.5428 38.5584 65.0782 38.4902C65.6257 38.4213 66.0142 37.92 65.9446 37.3725C65.875 36.825 65.3744 36.4373 64.8261 36.5061Z" fill="#8572DF"/>
<path fill-rule="evenodd" clip-rule="evenodd" d="M55.2939 29.9085C57.4553 29.6181 59.734 30.704 60.945 32.81C62.1564 34.9169 61.9485 37.4325 60.6102 39.1544C60.6177 39.1673 60.6251 39.1802 60.6325 39.1932C62.112 41.7662 61.0467 45.1574 58.2548 46.7627C50.9801 50.9456 47.3297 45.2588 42.8438 46.0344L17.9268 59.9863C17.3661 60.3087 16.6999 60.395 16.0751 60.2265C15.4504 60.0579 14.9185 59.6489 14.5957 59.0874L14.5943 59.085C14.2715 58.5235 14.1851 57.8573 14.3537 57.2326C14.5223 56.6078 14.9321 56.0755 15.4932 55.754L40.4103 41.802C43.3372 38.3153 40.2583 32.2987 47.533 28.1159C50.325 26.5105 53.7922 27.2967 55.2717 29.8697C55.2791 29.8826 55.2865 29.8955 55.2939 29.9085ZM46.5702 38.7632L51.6039 35.8689C52.4304 35.3937 52.6605 34.2423 52.118 33.2987C51.5754 32.3551 50.4646 31.9748 49.6381 32.45C47.3026 33.7929 46.8702 35.7066 46.7166 37.5353C46.7047 37.6754 46.5805 38.624 46.5702 38.7632ZM48.5346 42.1796L53.5683 39.2853C54.3948 38.8101 55.5056 39.1904 56.0482 40.1339C56.5907 41.0775 56.361 42.2297 55.5346 42.7049C53.1991 44.0478 51.3276 43.4588 49.6699 42.6716C49.5429 42.6114 48.6605 42.2416 48.5346 42.1796ZM57.5108 34.7847C57.8712 35.4116 57.6549 36.2132 57.0288 36.5731C56.402 36.9336 55.6012 36.7168 55.2407 36.0899C54.8807 35.4638 55.0962 34.6627 55.7231 34.3022C56.3492 33.9422 57.1508 34.1586 57.5108 34.7847Z" fill="#CADCF0"/>
<path fill-rule="evenodd" clip-rule="evenodd" d="M26.8853 49.0566C26.8163 48.8666 26.8073 48.6586 26.8603 48.4616C26.9293 48.2076 27.0953 47.9926 27.3223 47.8616C27.4563 47.7846 27.5943 47.7046 27.7283 47.6276C27.9553 47.4976 28.2262 47.4626 28.4792 47.5306C28.7322 47.5986 28.9483 47.7656 29.0793 47.9926C29.7343 49.1316 30.8843 51.1306 31.5383 52.2696C31.6693 52.4976 31.7043 52.7676 31.6363 53.0206C31.5673 53.2746 31.4013 53.4896 31.1743 53.6206C31.0403 53.6976 30.9022 53.7776 30.7682 53.8536C30.5402 53.9846 30.2703 54.0196 30.0173 53.9516C29.7843 53.8886 29.5833 53.7436 29.4503 53.5436L27.7563 54.4946L30.6033 59.4467C30.7453 59.6927 30.7833 59.9847 30.7093 60.2587C30.6353 60.5327 30.4553 60.7657 30.2093 60.9067C29.8723 61.1007 29.4923 61.3197 29.1553 61.5137C28.9093 61.6547 28.6173 61.6927 28.3433 61.6187C28.0693 61.5447 27.8363 61.3647 27.6943 61.1197L25.7112 57.6687L23.1343 59.1477L23.6713 60.0817C23.9663 60.5937 23.7903 61.2477 23.2773 61.5427C22.9403 61.7357 22.5603 61.9547 22.2233 62.1487C21.7113 62.4427 21.0573 62.2667 20.7623 61.7547L19.6863 59.8827L17.1113 61.3627L18.8033 64.3057C19.0973 64.8177 18.9213 65.4717 18.4093 65.7667C18.0723 65.9597 17.6913 66.1787 17.3553 66.3727C16.8423 66.6667 16.1883 66.4907 15.8943 65.9787L13.7993 62.3347L13.0933 62.7317C12.4993 63.0737 11.7933 63.1647 11.1313 62.9867C10.4693 62.8077 9.90627 62.3737 9.56427 61.7797L9.56226 61.7767C9.22026 61.1817 9.12925 60.4767 9.30725 59.8147C9.48625 59.1527 9.92028 58.5897 10.5143 58.2477L26.8853 49.0566Z" fill="#A4BBDB"/>
<path fill-rule="evenodd" clip-rule="evenodd" d="M56.7699 34.3083C54.2028 32.3143 52.549 29.1983 52.549 25.6996C52.549 19.687 57.4303 14.805 63.4436 14.805C69.4561 14.805 74.3374 19.687 74.3374 25.6996C74.3374 26.2513 74.7855 26.6994 75.3373 26.6994C75.889 26.6994 76.3371 26.2513 76.3371 25.6996C76.3371 18.5828 70.5596 12.8053 63.4436 12.8053C56.3268 12.8053 50.5493 18.5828 50.5493 25.6996C50.5493 29.8403 52.5049 33.5279 55.5428 35.8876C55.9788 36.2264 56.6073 36.1475 56.946 35.7115C57.2847 35.2755 57.2059 34.6463 56.7699 34.3083Z" fill="#8572DF"/>
</svg>
