<svg width="100" height="100" viewBox="0 0 100 100" fill="none" xmlns="http://www.w3.org/2000/svg">
<path fill-rule="evenodd" clip-rule="evenodd" d="M47.15 41.2464L45.033 23.039C44.9692 22.4902 44.4717 22.0978 43.9231 22.1604C43.3754 22.2244 42.9819 22.7217 43.0459 23.2693L45.163 41.4767C45.2268 42.0256 45.724 42.4191 46.2717 42.3551C46.8205 42.2913 47.2141 41.794 47.15 41.2464Z" fill="#7C68DD"/>
<path fill-rule="evenodd" clip-rule="evenodd" d="M40.1521 43.4601L31.5403 37.4197C31.0882 37.1033 30.464 37.2129 30.1467 37.6653C29.8299 38.1161 29.9392 38.7408 30.3914 39.0572L39.0031 45.0976C39.4552 45.414 40.0794 45.3044 40.3962 44.8535C40.7135 44.4012 40.6042 43.7765 40.1521 43.4601Z" fill="#7C68DD"/>
<path fill-rule="evenodd" clip-rule="evenodd" d="M54.2835 42.6813L59.6303 33.6226C59.9103 33.1471 59.7521 32.5334 59.2762 32.2526C58.802 31.9721 58.1878 32.13 57.9078 32.6056L52.561 41.6642C52.281 42.1398 52.4392 42.7535 52.9135 43.0339C53.3893 43.3148 54.0035 43.1569 54.2835 42.6813Z" fill="#7C68DD"/>
<path fill-rule="evenodd" clip-rule="evenodd" d="M43.3804 51.168L41.7558 53.8135L45.2869 54.984L45.0894 57.4032L20.3512 69.5431C19.6003 69.9223 18.7288 69.9875 17.9292 69.7244C17.1297 69.4614 16.4677 68.8926 16.0879 68.1406L16.0863 68.1374C15.7065 67.3853 15.6413 66.5139 15.9043 65.7143C16.1673 64.9147 16.7372 64.2522 17.4887 63.874L43.3804 51.168Z" fill="#CADCF0"/>
<path fill-rule="evenodd" clip-rule="evenodd" d="M84.2429 54.7216C86.569 56.3453 87.7965 59.3908 87.1033 62.4741C86.4099 65.5585 83.9971 67.7855 81.1998 68.2574C81.1956 68.2763 81.1913 68.2953 81.1871 68.3142C80.3402 72.0811 76.3355 74.3924 72.2482 73.4735C61.5981 71.0792 63.1052 62.419 58.1253 59.2146L48.7918 57.0044L50.478 55.2738L48.4752 52.1237L51.4353 51.1044L59.5182 53.0185C65.3905 52.2538 67.7353 43.7806 78.3853 46.1749C82.4727 47.0938 85.1025 50.898 84.2557 54.6648C84.2514 54.6838 84.2472 54.7027 84.2429 54.7216ZM68.0936 55.5278L75.4629 57.1846C76.6728 57.4566 77.9064 56.556 78.217 55.1747C78.5276 53.7933 77.798 52.4514 76.5881 52.1794C73.169 51.4108 71.0706 52.8636 69.3144 54.4803C69.1797 54.6041 68.2259 55.4035 68.0936 55.5278ZM66.9692 60.5294L74.3385 62.1861C75.5483 62.4581 76.2779 63.8 75.9674 65.1813C75.6568 66.5627 74.4229 67.4644 73.213 67.1924C69.7938 66.4237 68.5192 64.2126 67.6239 61.9998C67.5551 61.8303 67.0353 60.6996 66.9692 60.5294ZM82.0757 61.3438C81.8694 62.2615 80.9568 62.8391 80.0402 62.6331C79.1225 62.4267 78.5461 61.5144 78.7524 60.5966C78.9585 59.6801 79.8699 59.1022 80.7877 59.3085C81.7042 59.5146 82.2818 60.4272 82.0757 61.3438Z" fill="#CADCF0"/>
<path fill-rule="evenodd" clip-rule="evenodd" d="M32.7588 55.9783C32.6828 55.7273 32.6848 55.4563 32.7688 55.2033C32.8748 54.8793 33.1058 54.6103 33.4108 54.4563C33.5898 54.3663 33.7748 54.2723 33.9548 54.1823C34.2588 54.0283 34.6128 54.0013 34.9368 54.1083C35.2608 54.2153 35.5298 54.4463 35.6838 54.7513C36.4538 56.2763 37.8058 58.9543 38.5768 60.4793C38.7298 60.7843 38.7568 61.1383 38.6498 61.4623C38.5438 61.7863 38.3128 62.0553 38.0078 62.2093C37.8288 62.2993 37.6438 62.3933 37.4638 62.4833C37.1598 62.6373 36.8058 62.6633 36.4818 62.5573C36.1838 62.4593 35.9328 62.2553 35.7748 61.9863L33.5068 63.1033L36.8558 69.7353C37.0228 70.0653 37.0508 70.4473 36.9358 70.7983C36.8208 71.1483 36.5708 71.4393 36.2408 71.6053C35.7898 71.8333 35.2798 72.0903 34.8288 72.3183C34.4998 72.4843 34.1178 72.5133 33.7668 72.3983C33.4168 72.2823 33.1258 72.0323 32.9598 71.7033L30.6258 67.0823L27.1758 68.8213L27.8078 70.0723C28.1538 70.7583 27.8788 71.5953 27.1928 71.9413C26.7408 72.1693 26.2318 72.4263 25.7798 72.6543C25.0938 73.0013 24.2578 72.7253 23.9108 72.0393L22.6448 69.5323L19.1958 71.2733L21.1858 75.2153C21.5318 75.9013 21.2568 76.7383 20.5708 77.0843C20.1198 77.3123 19.6098 77.5703 19.1588 77.7973C18.4728 78.1443 17.6358 77.8683 17.2898 77.1823L14.8247 72.3023L13.8797 72.7683C13.0837 73.1703 12.1608 73.2393 11.3138 72.9603C10.4668 72.6823 9.76474 72.0783 9.36374 71.2823L9.36075 71.2783C8.95875 70.4823 8.88973 69.5593 9.16873 68.7123C9.44673 67.8653 10.0508 67.1643 10.8468 66.7623L32.7588 55.9783Z" fill="#A4BBDB"/>
</svg>
