<?xml version="1.0" encoding="UTF-8" standalone="no"?>
<!DOCTYPE svg PUBLIC "-//W3C//DTD SVG 1.1//EN" "http://www.w3.org/Graphics/SVG/1.1/DTD/svg11.dtd">
<!-- Created with Vectornator (http://vectornator.io/) -->
<svg height="24.0px" stroke-miterlimit="10"
     style="fill-rule:nonzero;clip-rule:evenodd;stroke-linecap:round;stroke-linejoin:round;" version="1.1"
     viewBox="0 0 24 24" width="24.0px" xml:space="preserve" xmlns="http://www.w3.org/2000/svg">
<defs/>
<clipPath id="ArtboardFrame">
<rect height="24" width="24" x="0" y="0"/>
</clipPath>
<g clip-path="url(#ArtboardFrame)" id="Layer-2">
<path d="M12.9901 23.0002C12.9901 23.0002 11.343 20.8171 12 16.6327M12 0.999838C11.0041 0.990875 7.07349 5.04456 6.9088 10.4505C6.9088 10.4505 3.73853 10.0427 1.5 11.08C2.36824 15.7317 4.12741 17.0596 4.12741 17.0596C4.12741 17.0596 3.62853 18.2185 4.03116 19.0034C6.79572 19.7315 10.372 19.5404 12 16.6338C13.628 19.5404 17.2043 19.7315 19.9688 19.0034C20.3715 18.2185 19.8726 17.0596 19.8726 17.0596C19.8726 17.0596 21.6318 15.7317 22.5 11.08C20.2615 10.0427 17.0912 10.4505 17.0912 10.4505C16.9265 5.04456 12.9959 0.990875 12 0.999838ZM12 16.6328C12 16.6328 11.512 11.6246 11.9088 8.95797M16.0813 14.5007C16.0813 14.5007 13.1623 15.4945 12 16.6328M8.20401 14.5798C8.20401 14.5798 9.95223 15.133 12 16.6328" fill="none" opacity="1" stroke="#000000" stroke-linecap="round" stroke-linejoin="round" stroke-width="2"/>
</g>
</svg>
