<?xml version="1.0" encoding="UTF-8" standalone="no"?>
<!DOCTYPE svg PUBLIC "-//W3C//DTD SVG 1.1//EN" "http://www.w3.org/Graphics/SVG/1.1/DTD/svg11.dtd">
<!-- Created with Vectornator (http://vectornator.io/) -->
<svg height="24.0px" stroke-miterlimit="10"
     style="fill-rule:nonzero;clip-rule:evenodd;stroke-linecap:round;stroke-linejoin:round;" version="1.1"
     viewBox="0 0 24 24" width="24.0px" xml:space="preserve" xmlns="http://www.w3.org/2000/svg">
<defs/>
<clipPath id="ArtboardFrame">
<rect height="24" width="24" x="0" y="0"/>
</clipPath>
<g clip-path="url(#ArtboardFrame)" id="Layer-1">
<g opacity="1">
<path d="M12 0C9.88935-0.0189948 6.65931 4.76763 6.09375 9.40625C5.74526 9.39074 5.41034 9.36521 5.03125 9.375C3.56629 9.41284 2.21786 9.66661 1.09375 10.1875C0.678902 10.3797 0.44736 10.8005 0.53125 11.25C0.812502 12.7569 1.18203 14.0519 1.65625 15.125C2.13426 16.2066 2.59275 16.6442 3.03125 17.125C3.02841 17.1348 3.03405 17.1463 3.03125 17.1562C2.9131 17.5759 2.85252 18.0096 2.875 18.4375C2.8941 18.801 2.99453 19.1535 3.15625 19.4688C3.28585 19.7214 3.50668 19.8964 3.78125 19.9688C7.05184 20.8302 10.1085 20.2461 12 18.125C13.8915 20.2461 16.9482 20.8302 20.2188 19.9688C20.4933 19.8964 20.7141 19.7214 20.8438 19.4688C21.1409 18.8895 21.1936 18.2461 21.0625 17.5625C21.0306 17.396 20.978 17.2935 20.9375 17.1562C21.3816 16.6768 21.8572 16.226 22.3438 15.125C22.818 14.0519 23.1875 12.7569 23.4688 11.25C23.5526 10.8005 23.3211 10.3797 22.9062 10.1875C21.7821 9.66661 20.4337 9.41284 18.9688 9.375C18.5108 9.36317 18.2622 9.419 17.9062 9.4375C17.3517 4.78939 14.1153-0.0190362 12 0Z" fill="#a895f8" fill-rule="nonzero" opacity="1" stroke="none"/>
<path d="M12.9901 23.0002C12.9901 23.0002 11.343 20.8171 12 16.6327M12 16.6328C12 16.6328 11.512 11.6246 11.9088 8.95797M16.0813 14.5007C16.0813 14.5007 13.1623 15.4945 12 16.6328M8.20401 14.5798C8.20401 14.5798 9.95223 15.133 12 16.6328" fill="none" opacity="1" stroke="#6147cf" stroke-linecap="round" stroke-linejoin="round" stroke-width="2"/>
</g>
</g>
</svg>
