<?xml version="1.0" encoding="UTF-8" standalone="no"?>
<!DOCTYPE svg PUBLIC "-//W3C//DTD SVG 1.1//EN" "http://www.w3.org/Graphics/SVG/1.1/DTD/svg11.dtd">
<!-- Created with Vectornator (http://vectornator.io/) -->
<svg height="100%"
     stroke-miterlimit="10"
     style="fill-rule:nonzero;clip-rule:evenodd;stroke-linecap:round;stroke-linejoin:round;"
     version="1.1"
     viewBox="0 0 4000 800"
     width="100%"
     xml:space="preserve"
     xmlns="http://www.w3.org/2000/svg">
<defs>
<clipPath id="TextBounds">
<rect height="595.243" transform="matrix(1 0 0 1 0 250)" width="4000" x="0" y="0"/>
</clipPath>
</defs>
<g id="Layer-1">
<path d="M1246.05 57.18C1254.64 62.1267 1258.93 69.5933 1258.93 79.58C1258.93 87.8867 1255.99 94.7 1250.11 100.02C1244.23 105.34 1237 108 1228.41 108L1186.83 108L1186.83 10L1225.47 10C1233.87 10 1240.94 12.59 1246.68 17.77C1252.42 22.95 1255.29 29.5533 1255.29 37.58C1255.29 45.7 1252.21 52.2333 1246.05 57.18ZM1225.47 28.06L1206.15 28.06L1206.15 49.62L1225.47 49.62C1228.46 49.62 1230.95 48.5933 1232.96 46.54C1234.97 44.4867 1235.97 41.92 1235.97 38.84C1235.97 35.76 1234.99 33.1933 1233.03 31.14C1231.07 29.0867 1228.55 28.06 1225.47 28.06ZM1228.41 89.94C1231.68 89.94 1234.38 88.8433 1236.53 86.65C1238.68 84.4567 1239.75 81.68 1239.75 78.32C1239.75 75.0533 1238.68 72.3233 1236.53 70.13C1234.38 67.9367 1231.68 66.84 1228.41 66.84L1206.15 66.84L1206.15 89.94L1228.41 89.94ZM1340.85 89.52L1378.23 89.52L1378.23 108L1321.53 108L1321.53 10L1340.85 10L1340.85 89.52ZM1504.95 108L1499.07 90.36L1460.01 90.36L1454.13 108L1433.27 108L1467.57 10L1491.51 10L1525.95 108L1504.95 108ZM1466.17 72.3L1493.05 72.3L1479.61 32.26L1466.17 72.3ZM1628.45 109.96C1613.7 109.96 1601.52 105.06 1591.91 95.26C1582.3 85.46 1577.49 73.3733 1577.49 59C1577.49 44.5333 1582.3 32.4233 1591.91 22.67C1601.52 12.9167 1613.7 8.04 1628.45 8.04C1637.32 8.04 1645.51 10.1167 1653.02 14.27C1660.53 18.4233 1666.39 24.0467 1670.59 31.14L1653.93 40.8C1651.5 36.4133 1648.05 32.9833 1643.57 30.51C1639.09 28.0367 1634.05 26.8 1628.45 26.8C1618.93 26.8 1611.25 29.7867 1605.42 35.76C1599.59 41.7333 1596.67 49.48 1596.67 59C1596.67 68.4267 1599.59 76.1267 1605.42 82.1C1611.25 88.0733 1618.93 91.06 1628.45 91.06C1634.05 91.06 1639.11 89.8233 1643.64 87.35C1648.17 84.8767 1651.6 81.4933 1653.93 77.2L1670.59 86.86C1666.39 93.9533 1660.56 99.5767 1653.09 103.73C1645.62 107.883 1637.41 109.96 1628.45 109.96ZM1809.07 108L1786.81 108L1751.81 62.08L1751.81 108L1732.49 108L1732.49 10L1751.81 10L1751.81 53.26L1785.41 10L1807.67 10L1771.41 57.6L1809.07 108ZM2030.17 108L2007.91 108L1972.91 62.08L1972.91 108L1953.59 108L1953.59 10L1972.91 10L1972.91 53.26L2006.51 10L2028.77 10L1992.51 57.6L2030.17 108ZM2155.21 108L2149.33 90.36L2110.27 90.36L2104.39 108L2083.53 108L2117.83 10L2141.77 10L2176.21 108L2155.21 108ZM2116.43 72.3L2143.31 72.3L2129.87 32.26L2116.43 72.3ZM2331.63 10L2331.63 108L2312.45 108L2312.45 44.44L2284.87 89.94L2282.63 89.94L2255.05 44.58L2255.05 108L2235.73 108L2235.73 10L2255.61 10L2283.75 56.34L2311.75 10L2331.63 10ZM2419.15 89.52L2460.45 89.52L2460.45 108L2399.83 108L2399.83 10L2459.75 10L2459.75 28.48L2419.15 28.48L2419.15 49.34L2456.25 49.34L2456.25 67.54L2419.15 67.54L2419.15 89.52ZM2543.35 89.52L2580.73 89.52L2580.73 108L2524.03 108L2524.03 10L2543.35 10L2543.35 89.52ZM2641.65 10L2660.97 10L2660.97 108L2641.65 108L2641.65 10ZM2792.17 108L2786.29 90.36L2747.23 90.36L2741.35 108L2720.49 108L2754.79 10L2778.73 10L2813.17 108L2792.17 108ZM2753.39 72.3L2780.27 72.3L2766.83 32.26L2753.39 72.3Z" fill="#ffffff" fill-rule="nonzero" opacity="1" stroke="none"/>
<g fill="#ffffff" opacity="1" stroke="none">
<path clip-path="url(#TextBounds)" d="M1403.36 285L1469.12 285L1469.12 621L1403.36 621L1403.36 481.8L1278.56 481.8L1278.56 621L1212.32 621L1212.32 285L1278.56 285L1278.56 418.44L1403.36 418.44L1403.36 285Z"/>
<path clip-path="url(#TextBounds)" d="M1580.96 526.44C1589.28 556.52 1611.84 571.56 1648.64 571.56C1672.32 571.56 1690.24 563.56 1702.4 547.56L1752.32 576.36C1728.64 610.6 1693.76 627.72 1647.68 627.72C1608 627.72 1576.16 615.72 1552.16 591.72C1528.16 567.72 1516.16 537.48 1516.16 501C1516.16 464.84 1528 434.68 1551.68 410.52C1575.36 386.36 1605.76 374.28 1642.88 374.28C1678.08 374.28 1707.12 386.44 1730 410.76C1752.88 435.08 1764.32 465.16 1764.32 501C1764.32 509 1763.52 517.48 1761.92 526.44L1580.96 526.44ZM1580 478.44L1702.4 478.44C1698.88 462.12 1691.6 449.96 1680.56 441.96C1669.52 433.96 1656.96 429.96 1642.88 429.96C1626.24 429.96 1612.48 434.2 1601.6 442.68C1590.72 451.16 1583.52 463.08 1580 478.44Z"/>
<path clip-path="url(#TextBounds)" d="M1987.52 285L2049.44 285L2049.44 621L1987.52 621L1987.52 592.68C1969.28 616.04 1943.36 627.72 1909.76 627.72C1877.44 627.72 1849.84 615.48 1826.96 591C1804.08 566.52 1792.64 536.52 1792.64 501C1792.64 465.48 1804.08 435.48 1826.96 411C1849.84 386.52 1877.44 374.28 1909.76 374.28C1943.36 374.28 1969.28 385.96 1987.52 409.32L1987.52 285ZM1873.28 549.96C1886.08 562.44 1902.08 568.68 1921.28 568.68C1940.48 568.68 1956.32 562.36 1968.8 549.72C1981.28 537.08 1987.52 520.84 1987.52 501C1987.52 481.16 1981.28 464.92 1968.8 452.28C1956.32 439.64 1940.48 433.32 1921.28 433.32C1902.08 433.32 1886.16 439.64 1873.52 452.28C1860.88 464.92 1854.56 481.16 1854.56 501C1854.56 520.84 1860.8 537.16 1873.28 549.96Z"/>
<path clip-path="url(#TextBounds)" d="M2158.4 526.44C2166.72 556.52 2189.28 571.56 2226.08 571.56C2249.76 571.56 2267.68 563.56 2279.84 547.56L2329.76 576.36C2306.08 610.6 2271.2 627.72 2225.12 627.72C2185.44 627.72 2153.6 615.72 2129.6 591.72C2105.6 567.72 2093.6 537.48 2093.6 501C2093.6 464.84 2105.44 434.68 2129.12 410.52C2152.8 386.36 2183.2 374.28 2220.32 374.28C2255.52 374.28 2284.56 386.44 2307.44 410.76C2330.32 435.08 2341.76 465.16 2341.76 501C2341.76 509 2340.96 517.48 2339.36 526.44L2158.4 526.44ZM2157.44 478.44L2279.84 478.44C2276.32 462.12 2269.04 449.96 2258 441.96C2246.96 433.96 2234.4 429.96 2220.32 429.96C2203.68 429.96 2189.92 434.2 2179.04 442.68C2168.16 451.16 2160.96 463.08 2157.44 478.44Z"/>
<path clip-path="url(#TextBounds)" d="M2446.88 422.28C2452.64 406.92 2462.16 395.4 2475.44 387.72C2488.72 380.04 2503.52 376.2 2519.84 376.2L2519.84 445.32C2500.96 443.08 2484.08 446.92 2469.2 456.84C2454.32 466.76 2446.88 483.24 2446.88 506.28L2446.88 621L2384.96 621L2384.96 381L2446.88 381L2446.88 422.28Z"/>
<path clip-path="url(#TextBounds)" d="M2729.12 381L2791.04 381L2791.04 621L2729.12 621L2729.12 592.68C2710.56 616.04 2684.48 627.72 2650.88 627.72C2618.88 627.72 2591.44 615.48 2568.56 591C2545.68 566.52 2534.24 536.52 2534.24 501C2534.24 465.48 2545.68 435.48 2568.56 411C2591.44 386.52 2618.88 374.28 2650.88 374.28C2684.48 374.28 2710.56 385.96 2729.12 409.32L2729.12 381ZM2614.88 549.96C2627.36 562.44 2643.2 568.68 2662.4 568.68C2681.6 568.68 2697.52 562.36 2710.16 549.72C2722.8 537.08 2729.12 520.84 2729.12 501C2729.12 481.16 2722.8 464.92 2710.16 452.28C2697.52 439.64 2681.6 433.32 2662.4 433.32C2643.2 433.32 2627.36 439.64 2614.88 452.28C2602.4 464.92 2596.16 481.16 2596.16 501C2596.16 520.84 2602.4 537.16 2614.88 549.96Z"/>
</g>
</g>
</svg>
