<?xml version="1.0" encoding="UTF-8" standalone="no"?>
<!DOCTYPE svg PUBLIC "-//W3C//DTD SVG 1.1//EN" "http://www.w3.org/Graphics/SVG/1.1/DTD/svg11.dtd">
<!-- Created with Vectornator (http://vectornator.io/) -->
<svg stroke-miterlimit="10"
     style="fill-rule:nonzero;clip-rule:evenodd;stroke-linecap:round;stroke-linejoin:round;"
     version="1.1"
     viewBox="0 0 4000 800"
     xml:space="preserve"
     xmlns="http://www.w3.org/2000/svg">
<defs>
<clipPath id="TextBounds">
<rect height="595.243" width="4000" x="0" y="250"/>
</clipPath>
</defs>
<g id="Layer-1">
<path d="M1246.05 57.18C1254.64 62.1267 1258.93 69.5933 1258.93 79.58C1258.93 87.8867 1255.99 94.7 1250.11 100.02C1244.23 105.34 1237 108 1228.41 108L1186.83 108L1186.83 10L1225.47 10C1233.87 10 1240.94 12.59 1246.68 17.77C1252.42 22.95 1255.29 29.5533 1255.29 37.58C1255.29 45.7 1252.21 52.2333 1246.05 57.18ZM1225.47 28.06L1206.15 28.06L1206.15 49.62L1225.47 49.62C1228.46 49.62 1230.95 48.5933 1232.96 46.54C1234.97 44.4867 1235.97 41.92 1235.97 38.84C1235.97 35.76 1234.99 33.1933 1233.03 31.14C1231.07 29.0867 1228.55 28.06 1225.47 28.06ZM1228.41 89.94C1231.68 89.94 1234.38 88.8433 1236.53 86.65C1238.68 84.4567 1239.75 81.68 1239.75 78.32C1239.75 75.0533 1238.68 72.3233 1236.53 70.13C1234.38 67.9367 1231.68 66.84 1228.41 66.84L1206.15 66.84L1206.15 89.94L1228.41 89.94ZM1340.85 89.52L1378.23 89.52L1378.23 108L1321.53 108L1321.53 10L1340.85 10L1340.85 89.52ZM1504.95 108L1499.07 90.36L1460.01 90.36L1454.13 108L1433.27 108L1467.57 10L1491.51 10L1525.95 108L1504.95 108ZM1466.17 72.3L1493.05 72.3L1479.61 32.26L1466.17 72.3ZM1628.45 109.96C1613.7 109.96 1601.52 105.06 1591.91 95.26C1582.3 85.46 1577.49 73.3733 1577.49 59C1577.49 44.5333 1582.3 32.4233 1591.91 22.67C1601.52 12.9167 1613.7 8.04 1628.45 8.04C1637.32 8.04 1645.51 10.1167 1653.02 14.27C1660.53 18.4233 1666.39 24.0467 1670.59 31.14L1653.93 40.8C1651.5 36.4133 1648.05 32.9833 1643.57 30.51C1639.09 28.0367 1634.05 26.8 1628.45 26.8C1618.93 26.8 1611.25 29.7867 1605.42 35.76C1599.59 41.7333 1596.67 49.48 1596.67 59C1596.67 68.4267 1599.59 76.1267 1605.42 82.1C1611.25 88.0733 1618.93 91.06 1628.45 91.06C1634.05 91.06 1639.11 89.8233 1643.64 87.35C1648.17 84.8767 1651.6 81.4933 1653.93 77.2L1670.59 86.86C1666.39 93.9533 1660.56 99.5767 1653.09 103.73C1645.62 107.883 1637.41 109.96 1628.45 109.96ZM1809.07 108L1786.81 108L1751.81 62.08L1751.81 108L1732.49 108L1732.49 10L1751.81 10L1751.81 53.26L1785.41 10L1807.67 10L1771.41 57.6L1809.07 108ZM2030.17 108L2007.91 108L1972.91 62.08L1972.91 108L1953.59 108L1953.59 10L1972.91 10L1972.91 53.26L2006.51 10L2028.77 10L1992.51 57.6L2030.17 108ZM2155.21 108L2149.33 90.36L2110.27 90.36L2104.39 108L2083.53 108L2117.83 10L2141.77 10L2176.21 108L2155.21 108ZM2116.43 72.3L2143.31 72.3L2129.87 32.26L2116.43 72.3ZM2331.63 10L2331.63 108L2312.45 108L2312.45 44.44L2284.87 89.94L2282.63 89.94L2255.05 44.58L2255.05 108L2235.73 108L2235.73 10L2255.61 10L2283.75 56.34L2311.75 10L2331.63 10ZM2419.15 89.52L2460.45 89.52L2460.45 108L2399.83 108L2399.83 10L2459.75 10L2459.75 28.48L2419.15 28.48L2419.15 49.34L2456.25 49.34L2456.25 67.54L2419.15 67.54L2419.15 89.52ZM2543.35 89.52L2580.73 89.52L2580.73 108L2524.03 108L2524.03 10L2543.35 10L2543.35 89.52ZM2641.65 10L2660.97 10L2660.97 108L2641.65 108L2641.65 10ZM2792.17 108L2786.29 90.36L2747.23 90.36L2741.35 108L2720.49 108L2754.79 10L2778.73 10L2813.17 108L2792.17 108ZM2753.39 72.3L2780.27 72.3L2766.83 32.26L2753.39 72.3Z" fill="#0e0e0e" fill-rule="nonzero" opacity="1" stroke="none"/>
<g fill="#0e0e0e" opacity="1" stroke="none">
<path clip-path="url(#TextBounds)" d="M1216.94 627.72C1164.14 627.72 1127.18 606.44 1106.06 563.88L1163.18 531.24C1173.74 552.36 1191.66 562.92 1216.94 562.92C1234.54 562.92 1247.66 558.76 1256.3 550.44C1264.94 542.12 1269.26 530.76 1269.26 516.36L1269.26 285L1335.02 285L1335.02 516.36C1335.02 551.56 1323.98 578.92 1301.9 598.44C1279.82 617.96 1251.5 627.72 1216.94 627.72Z"/>
<path clip-path="url(#TextBounds)" d="M1442.58 526.44C1450.9 556.52 1473.46 571.56 1510.26 571.56C1533.94 571.56 1551.86 563.56 1564.02 547.56L1613.94 576.36C1590.26 610.6 1555.38 627.72 1509.3 627.72C1469.62 627.72 1437.78 615.72 1413.78 591.72C1389.78 567.72 1377.78 537.48 1377.78 501C1377.78 464.84 1389.62 434.68 1413.3 410.52C1436.98 386.36 1467.38 374.28 1504.5 374.28C1539.7 374.28 1568.74 386.44 1591.62 410.76C1614.5 435.08 1625.94 465.16 1625.94 501C1625.94 509 1625.14 517.48 1623.54 526.44L1442.58 526.44ZM1441.62 478.44L1564.02 478.44C1560.5 462.12 1553.22 449.96 1542.18 441.96C1531.14 433.96 1518.58 429.96 1504.5 429.96C1487.86 429.96 1474.1 434.2 1463.22 442.68C1452.34 451.16 1445.14 463.08 1441.62 478.44Z"/>
<path clip-path="url(#TextBounds)" d="M1670.14 621L1670.14 270.6L1732.06 270.6L1732.06 621L1670.14 621Z"/>
<path clip-path="url(#TextBounds)" d="M1789.7 621L1789.7 270.6L1851.62 270.6L1851.62 621L1789.7 621Z"/>
<path clip-path="url(#TextBounds)" d="M2065.74 381L2131.98 381L2044.62 621C2032.14 655.56 2015.58 680.6 1994.94 696.12C1974.3 711.64 1948.62 718.6 1917.9 717L1917.9 659.4C1934.54 659.72 1947.74 656.2 1957.5 648.84C1967.26 641.48 1975.02 629.64 1980.78 613.32L1882.38 381L1950.06 381L2012.46 542.28L2065.74 381Z"/>
<path clip-path="url(#TextBounds)" d="M2291.38 337.8C2257.46 335.24 2240.5 348.84 2240.5 378.6L2240.5 381L2291.38 381L2291.38 440.52L2240.5 440.52L2240.5 621L2178.58 621L2178.58 440.52L2144.02 440.52L2144.02 381L2178.58 381L2178.58 378.6C2178.58 344.68 2188.02 318.92 2206.9 301.32C2225.78 283.72 2253.94 276.04 2291.38 278.28L2291.38 337.8Z"/>
<path clip-path="url(#TextBounds)" d="M2351.42 352.2C2341.18 352.2 2332.3 348.44 2324.78 340.92C2317.26 333.4 2313.5 324.52 2313.5 314.28C2313.5 304.04 2317.26 295.08 2324.78 287.4C2332.3 279.72 2341.18 275.88 2351.42 275.88C2361.98 275.88 2371.02 279.72 2378.54 287.4C2386.06 295.08 2389.82 304.04 2389.82 314.28C2389.82 324.52 2386.06 333.4 2378.54 340.92C2371.02 348.44 2361.98 352.2 2351.42 352.2ZM2320.7 621L2320.7 381L2382.62 381L2382.62 621L2320.7 621Z"/>
<path clip-path="url(#TextBounds)" d="M2495.46 449.16C2495.46 455.56 2499.7 460.76 2508.18 464.76C2516.66 468.76 2526.98 472.28 2539.14 475.32C2551.3 478.36 2563.46 482.2 2575.62 486.84C2587.78 491.48 2598.1 499.24 2606.58 510.12C2615.06 521 2619.3 534.6 2619.3 550.92C2619.3 575.56 2610.1 594.52 2591.7 607.8C2573.3 621.08 2550.34 627.72 2522.82 627.72C2473.54 627.72 2439.94 608.68 2422.02 570.6L2475.78 540.36C2482.82 561.16 2498.5 571.56 2522.82 571.56C2544.9 571.56 2555.94 564.68 2555.94 550.92C2555.94 544.52 2551.7 539.32 2543.22 535.32C2534.74 531.32 2524.42 527.72 2512.26 524.52C2500.1 521.32 2487.94 517.32 2475.78 512.52C2463.62 507.72 2453.3 500.12 2444.82 489.72C2436.34 479.32 2432.1 466.28 2432.1 450.6C2432.1 426.92 2440.82 408.28 2458.26 394.68C2475.7 381.08 2497.38 374.28 2523.3 374.28C2542.82 374.28 2560.58 378.68 2576.58 387.48C2592.58 396.28 2605.22 408.84 2614.5 425.16L2561.7 453.96C2554.02 437.64 2541.22 429.48 2523.3 429.48C2515.3 429.48 2508.66 431.24 2503.38 434.76C2498.1 438.28 2495.46 443.08 2495.46 449.16Z"/>
<path clip-path="url(#TextBounds)" d="M2793.58 374.28C2819.82 374.28 2841.5 383.08 2858.62 400.68C2875.74 418.28 2884.3 442.6 2884.3 473.64L2884.3 621L2822.38 621L2822.38 481.32C2822.38 465.32 2818.06 453.08 2809.42 444.6C2800.78 436.12 2789.26 431.88 2774.86 431.88C2758.86 431.88 2746.06 436.84 2736.46 446.76C2726.86 456.68 2722.06 471.56 2722.06 491.4L2722.06 621L2660.14 621L2660.14 285L2722.06 285L2722.06 407.88C2737.1 385.48 2760.94 374.28 2793.58 374.28Z"/>
</g>
</g>
</svg>
